<svg id="Layer_2" data-name="Layer 2" xmlns="http://www.w3.org/2000/svg" viewBox="0 0 2269.27 2024.57"><defs><style>.cls-1{fill:#666;}.cls-2{fill:#fff;}</style></defs><title>NEW2</title><path class="cls-1" d="M62,76c3.73-6,8.25-12.15,14.81-15.22C82.41,58.18,90,58,94.39,63c4.6,5.15,5.08,13.58,6.25,20,1.32,7.3,2.94,14.76,6.83,21.19a30.36,30.36,0,0,0,13.27,12.26c6.39,2.83,12.86,2.07,19.47.51,16.71-3.93,33.37-8.09,50-12.13,6.26-1.52,3.61-11.16-2.65-9.64-17.45,4.22-34.9,9.28-52.52,12.69-18.32,3.55-22.82-16.3-25.27-30.13-2.39-13.51-7.28-27.41-23.07-28.68-15-1.2-26.06,10.14-33.4,21.89-3.42,5.48,5.23,10.5,8.64,5Z"/><path class="cls-1" d="M674.85,375.83a545.22,545.22,0,0,1-4.66-56.07l-9.32,2.52q11.4,25.19,25.19,49.16l6.84-6.84a358.47,358.47,0,0,0-45.47-24.18l-2.52,9.31a292.64,292.64,0,0,0,51.93-11.25L693,329.34c-17.59,9.78-24.28,29.79-29.43,48-1.75,6.2,7.9,8.85,9.65,2.65,4.41-15.63,9.66-33.62,24.83-42.06,4.89-2.72,1.61-10.86-3.85-9.14a276.9,276.9,0,0,1-49.27,10.9c-4.23.54-7.66,7-2.53,9.32a359.75,359.75,0,0,1,45.47,24.18c4.32,2.71,9.27-2.6,6.84-6.84q-13.77-24-25.19-49.16c-2.08-4.6-9.47-2.2-9.31,2.53a566.14,566.14,0,0,0,5,58.73c.87,6.35,10.5,3.65,9.64-2.66Z"/><path class="cls-1" d="M68.3,500.63q26,40.27,54.35,78.93c3.77,5.14,12.45.16,8.64-5q-28.38-38.64-54.36-78.94c-3.47-5.39-12.13-.38-8.63,5.05Z"/><path class="cls-1" d="M114.13,476.84a633.7,633.7,0,0,0,50.38,70.54c4.09,5,11.13-2.13,7.07-7.07a615,615,0,0,1-48.82-68.52c-3.36-5.47-12-.45-8.63,5Z"/><path class="cls-1" d="M139.41,489.6a326.2,326.2,0,0,0-42.74,57.93c-3.24,5.58,5.4,10.62,8.63,5a314.79,314.79,0,0,1,41.18-55.9c4.36-4.72-2.69-11.81-7.07-7.07Z"/><path class="cls-1" d="M660.7,35.43a161.12,161.12,0,0,0,59.21,12.89l-3.54-8.53A191.75,191.75,0,0,0,686.88,81.4c-3,5.7,5.64,10.76,8.63,5a181.71,181.71,0,0,1,27.93-39.59,5.06,5.06,0,0,0-3.53-8.54A147.89,147.89,0,0,1,665.75,26.8c-5.86-2.48-11,6.13-5,8.63Z"/><path class="cls-1" d="M422.09,48.83c-.84,8.53-1.71,18.2-7.84,24.78-6.36,6.82-15.47,5-23.34,2.17a58.2,58.2,0,0,1-12.05-6c-2.95-1.93-5.58-4.52-8.85-5.89-7.95-3.33-14.29,2.52-19.6,7.74-5.66,5.55-11.21,12-18.89,14.7-8.15,2.9-17.1,1.91-25.37.13-14.44-3.12-32.74-7.38-41.92,8-3.31,5.54,5.34,10.58,8.63,5.05,4.88-8.17,15.69-6.78,23.57-5.05,8.28,1.81,16.51,3.91,25.06,3.65a40.64,40.64,0,0,0,23.52-8c6.28-4.69,11-11.84,17.49-16,4.22-2.72,7.88,2.09,11.32,4.32A67,67,0,0,0,384,83.74c7.71,3.28,16.74,6,25.15,4.06,17.67-4,21.45-23.72,22.95-39,.64-6.4-9.37-6.36-10,0Z"/><path class="cls-1" d="M77.33,261.85c4.23-4.11,12.4-10.39,16.78-3,3.58,6.06-1.23,13.51-6.32,16.95-8.6,5.8-21.63,4.5-29-2.82-9.29-9.27-6.8-24.88.08-34.76,8-11.47,21.76-17.3,34.79-20.84,6.21-1.69,3.57-11.34-2.66-9.65-15,4.08-29.95,11-39.52,23.75-8.7,11.56-11.75,28-5.06,41.26,5.73,11.35,18.83,17.51,31.27,16.55,13.55-1.06,27.42-11.09,27.56-25.78.08-7.51-4.59-15.14-12-17.44-8.83-2.75-17,2.78-23.08,8.67-4.62,4.5,2.45,11.57,7.07,7.07Z"/><path class="cls-1" d="M532.44,178.63c-.06,5.17-.65,14-7.56,14.25s-10-7.42-10.06-13.15c-.07-11.42,10.63-21.4,21.74-22C548.89,157,558.3,168,561.37,179c4.12,14.66-1.83,30-9,42.59-3.2,5.6,5.44,10.64,8.63,5.05,8.26-14.46,14.33-31.44,10.59-48.23-2.93-13.2-12.44-25.58-25.69-29.53-13.09-3.9-27.16,2.3-35,13s-8.84,27.89,2.31,36.81c6.22,5,15.54,5.78,21.86.53,6-5,7.35-13.2,7.43-20.6.08-6.44-9.92-6.45-10,0Z"/><path class="cls-1" d="M281.6,290.48c-7.63-9.58-21.73-11.1-32.35-5.91-11.87,5.81-17.3,19.84-16.15,32.48,1.29,14.18,10.07,26,21.07,34.52,5.83,4.51,13.67,7.54,18.37,13.31s6,13.89,7.36,21.05c1.19,6.31,10.83,3.64,9.65-2.66-2.23-11.89-5.48-23.13-15.69-30.57s-20.73-12.66-27-24.18c-5.27-9.64-5.8-23.17,2.21-31.56,6.86-7.2,19.23-7.27,25.49.59,4,5,11.05-2.09,7.07-7.07Z"/><path class="cls-1" d="M287.64,412.93v1.35a4.8,4.8,0,0,0,3.07,4.57,3.68,3.68,0,0,0,1.93.43l1.33-.18a4.94,4.94,0,0,0,2.21-1.28,5.23,5.23,0,0,0,1.46-3.54v-1.35a3.74,3.74,0,0,0-.43-1.92,5.18,5.18,0,0,0-4.57-3.08l-1.33.18a5.05,5.05,0,0,0-2.21,1.29,5.23,5.23,0,0,0-1.46,3.53Z"/><path class="cls-1" d="M671.87,536.62A215,215,0,0,1,643,605.81c-3.48,5.44,5.17,10.46,8.64,5.05a223.28,223.28,0,0,0,29.87-71.58c1.41-6.27-8.23-8.94-9.64-2.66Z"/><path class="cls-1" d="M612.62,653.43l7.94-2.77c2.47-.85,4.37-3.46,3.5-6.15-.79-2.44-3.51-4.41-6.15-3.49L610,643.78c-2.46.86-4.36,3.47-3.49,6.16.79,2.43,3.51,4.41,6.15,3.49Z"/><path class="cls-1" d="M459.23,307.72a208.84,208.84,0,0,1-34.53,33.1c-2.7,2-3.75,6.84,0,8.64A114.46,114.46,0,0,1,462.1,378c4.22,4.88,11.27-2.22,7.07-7.07a121.45,121.45,0,0,0-39.43-30.14v8.64a219.44,219.44,0,0,0,36.56-34.67c4.09-4.91-2.95-12-7.07-7.07Z"/><path class="cls-1" d="M444.49,545.86v-1.57a5.18,5.18,0,0,0-1.46-3.53,5.67,5.67,0,0,0-3.54-1.47,5.07,5.07,0,0,0-3.53,1.47,5.19,5.19,0,0,0-1.47,3.53v1.57a5.13,5.13,0,0,0,1.47,3.53,3.74,3.74,0,0,0,1.6,1,3.88,3.88,0,0,0,1.93.43,5,5,0,0,0,3.54-1.47,5.21,5.21,0,0,0,1.46-3.53Z"/><path class="cls-1" d="M400.82,550.14l-1.56-1.56a5.17,5.17,0,0,0-3.54-1.47,5.53,5.53,0,0,0-3.53,1.47,5,5,0,0,0-1.47,3.53,5.22,5.22,0,0,0,1.47,3.54l1.56,1.56a5.14,5.14,0,0,0,3.54,1.46,3.64,3.64,0,0,0,1.92-.43,3.69,3.69,0,0,0,1.61-1,5,5,0,0,0,1.47-3.54,5.21,5.21,0,0,0-1.47-3.53Z"/><path class="cls-1" d="M425.73,581.81v-1.56a5.16,5.16,0,0,0-1.46-3.54,3.69,3.69,0,0,0-1.61-1,3.77,3.77,0,0,0-1.93-.43,5.06,5.06,0,0,0-3.53,1.46,5.2,5.2,0,0,0-1.47,3.54v1.56a5.17,5.17,0,0,0,1.47,3.54,3.78,3.78,0,0,0,1.61,1,3.74,3.74,0,0,0,1.92.43,5.06,5.06,0,0,0,3.54-1.46,5.19,5.19,0,0,0,1.46-3.54Z"/><path class="cls-1" d="M452,583.68c6.43,0,6.44-10,0-10s-6.45,10,0,10Z"/><path class="cls-1" d="M381.65,594.63h1.57a5.13,5.13,0,0,0,3.53-1.47,3.71,3.71,0,0,0,1-1.61,3.84,3.84,0,0,0,.43-1.92,5.07,5.07,0,0,0-1.47-3.54,5.18,5.18,0,0,0-3.53-1.46h-1.57a5.14,5.14,0,0,0-3.53,1.46,3.69,3.69,0,0,0-1,1.61,3.78,3.78,0,0,0-.44,1.93,5.07,5.07,0,0,0,1.47,3.53,5.19,5.19,0,0,0,3.53,1.47Z"/><path class="cls-1" d="M223.15,611.5c-.91-8.13,3.35-16.6,11.67-18.82,9.13-2.43,17,3.07,20.59,11.23,3.7,8.42,7.33,20.41,2.89,29.14-1.82,3.57-5.78,7.61-10.2,7.12-4-.44-7.42-4.34-6.18-8.31,1.91-6.16-7.74-8.79-9.65-2.65-4.51,14.53,12.73,25.26,25,18.72,15.36-8.15,14.23-27.37,9.61-41.52-2.39-7.36-5.63-14.59-12.11-19.24a27.19,27.19,0,0,0-19.32-4.75c-13.9,1.84-23.88,15.25-22.34,29.08.7,6.32,10.71,6.39,10,0Z"/><path class="cls-1" d="M556.73,444.56h1.56a5.16,5.16,0,0,0,3.54-1.46,5.58,5.58,0,0,0,1.46-3.54,5.06,5.06,0,0,0-1.46-3.53,5.2,5.2,0,0,0-3.54-1.47h-1.56a5.17,5.17,0,0,0-3.54,1.47,3.78,3.78,0,0,0-1,1.61,3.72,3.72,0,0,0-.43,1.92,5.06,5.06,0,0,0,1.46,3.54,5.19,5.19,0,0,0,3.54,1.46Z"/><path class="cls-1" d="M573.51,468.11l1.57,1.56a5.13,5.13,0,0,0,3.53,1.47,3.88,3.88,0,0,0,1.93-.43,3.8,3.8,0,0,0,1.61-1,5,5,0,0,0,1.46-3.53,5.21,5.21,0,0,0-1.46-3.54L580.59,461a5.17,5.17,0,0,0-3.54-1.47,5.52,5.52,0,0,0-3.54,1.47,5,5,0,0,0-1.46,3.53,5.25,5.25,0,0,0,1.46,3.54Z"/><path class="cls-2" d="M539.94,41.37l.86-.86c4.56-4.56-2.51-11.63-7.07-7.08l-.86.86c-4.55,4.56,2.51,11.63,7.07,7.08l.86-.86c4.56-4.56-2.51-11.63-7.07-7.08l-.86.86c-4.55,4.56,2.51,11.63,7.07,7.08Z"/><path class="cls-2" d="M509.83,56.9c6.44,0,6.45-10,0-10s-6.44,10,0,10Z"/><path class="cls-1" d="M329.66,171.11l1.56,1.56a5.17,5.17,0,0,0,3.54,1.47,5.52,5.52,0,0,0,3.54-1.47,5,5,0,0,0,1.46-3.53,5.25,5.25,0,0,0-1.46-3.54L336.73,164a5.13,5.13,0,0,0-3.53-1.47,3.88,3.88,0,0,0-1.93.43,3.8,3.8,0,0,0-1.61,1,5,5,0,0,0-1.46,3.53,5.21,5.21,0,0,0,1.46,3.54Z"/><path class="cls-1" d="M353.11,191.43l1.56,1.56a5.15,5.15,0,0,0,3.54,1.47,5.53,5.53,0,0,0,3.53-1.47,5,5,0,0,0,1.47-3.53,5.22,5.22,0,0,0-1.47-3.54l-1.56-1.56a5.15,5.15,0,0,0-3.54-1.47,3.84,3.84,0,0,0-1.92.43,3.8,3.8,0,0,0-1.61,1,5,5,0,0,0-1.47,3.53,5.22,5.22,0,0,0,1.47,3.54Z"/><path class="cls-1" d="M96.94,385.89l1.56-3.13a5.27,5.27,0,0,0,.51-3.85,5.11,5.11,0,0,0-2.3-3,5,5,0,0,0-3.85-.5,5,5,0,0,0-3,2.3l-1.57,3.12a5.32,5.32,0,0,0-.5,3.85,5,5,0,0,0,6.15,3.5,5,5,0,0,0,3-2.3Z"/><path class="cls-1" d="M64.33,409.55H62.77A5.17,5.17,0,0,0,59.23,411a3.78,3.78,0,0,0-1,1.61,3.72,3.72,0,0,0-.43,1.92,5.06,5.06,0,0,0,1.46,3.54,5.19,5.19,0,0,0,3.54,1.46h1.56a5.21,5.21,0,0,0,3.54-1.46,5.58,5.58,0,0,0,1.46-3.54A5.06,5.06,0,0,0,67.87,411a5.2,5.2,0,0,0-3.54-1.47Z"/><path class="cls-1" d="M727.11,652.46c6.44,0,6.45-10,0-10s-6.44,10,0,10Z"/><path class="cls-1" d="M677.09,244.48c6.44,0,6.45-10,0-10s-6.44,10,0,10Z"/><path class="cls-1" d="M50.52,637.76,52.05,644a5,5,0,0,0,6.15,3.49,5.11,5.11,0,0,0,3.49-6.15l-1.53-6.26A5,5,0,0,0,54,631.61a5.1,5.1,0,0,0-3.49,6.15Z"/><path class="cls-1" d="M828.81,76c3.73-6,8.26-12.15,14.82-15.22,5.61-2.63,13.18-2.78,17.59,2.16,4.6,5.15,5.07,13.58,6.24,20,1.33,7.3,2.95,14.76,6.84,21.19a30.3,30.3,0,0,0,13.27,12.26c6.38,2.83,12.85,2.07,19.47.51,16.71-3.93,33.37-8.09,50.05-12.13,6.25-1.52,3.6-11.16-2.66-9.64-17.44,4.22-34.89,9.28-52.51,12.69-18.32,3.55-22.82-16.3-25.27-30.13-2.39-13.51-7.28-27.41-23.08-28.68-15-1.2-26.05,10.14-33.39,21.89-3.42,5.48,5.22,10.5,8.63,5Z"/><path class="cls-1" d="M1441.68,375.83a542.45,542.45,0,0,1-4.67-56.07l-9.32,2.52q11.41,25.19,25.19,49.16l6.84-6.84a359,359,0,0,0-45.46-24.18l-2.53,9.31a292.45,292.45,0,0,0,51.93-11.25l-3.85-9.14c-17.6,9.78-24.28,29.79-29.43,48-1.75,6.2,7.89,8.85,9.64,2.65,4.41-15.63,9.66-33.62,24.83-42.06,4.9-2.72,1.61-10.86-3.85-9.14a276.9,276.9,0,0,1-49.27,10.9c-4.23.54-7.65,7-2.52,9.32a359.63,359.63,0,0,1,45.46,24.18c4.32,2.71,9.28-2.6,6.84-6.84q-13.77-24-25.18-49.16c-2.09-4.6-9.47-2.2-9.32,2.53a571.7,571.7,0,0,0,5,58.73c.87,6.35,10.51,3.65,9.65-2.66Z"/><path class="cls-1" d="M835.12,500.63q26,40.27,54.36,78.93c3.76,5.14,12.45.16,8.63-5q-28.36-38.64-54.35-78.94c-3.48-5.39-12.14-.38-8.64,5.05Z"/><path class="cls-1" d="M881,476.84a635,635,0,0,0,50.38,70.54c4.09,5,11.13-2.13,7.08-7.07a613.74,613.74,0,0,1-48.82-68.52c-3.37-5.47-12-.45-8.64,5Z"/><path class="cls-1" d="M906.24,489.6a326.26,326.26,0,0,0-42.75,57.93c-3.23,5.58,5.41,10.62,8.64,5a314.3,314.3,0,0,1,41.18-55.9c4.36-4.72-2.7-11.81-7.07-7.07Z"/><path class="cls-1" d="M1427.53,35.43a161.07,161.07,0,0,0,59.2,12.89l-3.53-8.53a191.79,191.79,0,0,0-29.5,41.61c-3,5.7,5.65,10.76,8.64,5a181.37,181.37,0,0,1,27.93-39.59,5.06,5.06,0,0,0-3.54-8.54,147.83,147.83,0,0,1-54.15-11.52c-5.86-2.48-11,6.13-5,8.63Z"/><path class="cls-1" d="M1188.92,48.83c-.84,8.53-1.71,18.2-7.85,24.78-6.36,6.82-15.46,5-23.34,2.17a58.12,58.12,0,0,1-12-6c-3-1.93-5.59-4.52-8.86-5.89-7.95-3.33-14.28,2.52-19.6,7.74-5.65,5.55-11.21,12-18.88,14.7-8.15,2.9-17.1,1.91-25.37.13-14.44-3.12-32.75-7.38-41.93,8-3.3,5.54,5.34,10.58,8.64,5.05,4.87-8.17,15.68-6.78,23.57-5.05,8.28,1.81,16.5,3.91,25.06,3.65a40.64,40.64,0,0,0,23.52-8c6.27-4.69,11-11.84,17.48-16,4.22-2.72,7.88,2.09,11.32,4.32a67,67,0,0,0,10.17,5.34c7.72,3.28,16.74,6,25.16,4.06,17.66-4,21.44-23.72,23-39,.63-6.4-9.37-6.36-10,0Z"/><path class="cls-1" d="M844.15,261.85c4.23-4.11,12.4-10.39,16.79-3,3.58,6.06-1.23,13.51-6.32,16.95-8.6,5.8-21.63,4.5-29-2.82-9.29-9.27-6.81-24.88.07-34.76,8-11.47,21.77-17.3,34.8-20.84,6.2-1.69,3.57-11.34-2.66-9.65-15,4.08-30,11-39.53,23.75-8.7,11.56-11.74,28-5.06,41.26,5.73,11.35,18.84,17.51,31.27,16.55,13.55-1.06,27.42-11.09,27.57-25.78.07-7.51-4.6-15.14-12-17.44-8.82-2.75-17,2.78-23.08,8.67-4.62,4.5,2.46,11.57,7.07,7.07Z"/><path class="cls-1" d="M1299.27,178.63c-.06,5.17-.66,14-7.57,14.25s-10-7.42-10-13.15c-.08-11.42,10.63-21.4,21.73-22,12.34-.72,21.74,10.36,24.82,21.3,4.11,14.66-1.84,30-9.06,42.59-3.2,5.6,5.44,10.64,8.64,5.05,8.26-14.46,14.32-31.44,10.59-48.23-2.94-13.2-12.44-25.58-25.7-29.53-13.08-3.9-27.16,2.3-35,13s-8.84,27.89,2.3,36.81c6.23,5,15.54,5.78,21.86.53,6-5,7.35-13.2,7.44-20.6.07-6.44-9.93-6.45-10,0Z"/><path class="cls-1" d="M1048.43,290.48c-7.63-9.58-21.74-11.1-32.35-5.91-11.88,5.81-17.3,19.84-16.15,32.48,1.29,14.18,10.06,26,21.06,34.52,5.84,4.51,13.67,7.54,18.38,13.31s6,13.89,7.36,21.05c1.18,6.31,10.82,3.64,9.64-2.66-2.23-11.89-5.48-23.13-15.69-30.57s-20.73-12.66-27-24.18c-5.26-9.64-5.79-23.17,2.21-31.56,6.86-7.2,19.23-7.27,25.5.59,4,5,11-2.09,7.07-7.07Z"/><path class="cls-1" d="M1054.46,412.93v1.35a3.88,3.88,0,0,0,.43,1.93,3.8,3.8,0,0,0,1,1.61,3.69,3.69,0,0,0,1.61,1,3.64,3.64,0,0,0,1.92.43l1.33-.18a4.89,4.89,0,0,0,2.21-1.28,5.19,5.19,0,0,0,1.46-3.54v-1.35A3.64,3.64,0,0,0,1064,411a4.45,4.45,0,0,0-2.64-2.64,3.78,3.78,0,0,0-1.93-.44l-1.33.18a5,5,0,0,0-2.2,1.29,5.19,5.19,0,0,0-1.47,3.53Z"/><path class="cls-1" d="M1438.69,536.62a215,215,0,0,1-28.86,69.19c-3.49,5.44,5.17,10.46,8.63,5.05a223.3,223.3,0,0,0,29.88-71.58c1.4-6.27-8.24-8.94-9.65-2.66Z"/><path class="cls-1" d="M1379.45,653.43l7.94-2.77c2.46-.85,4.36-3.46,3.49-6.15-.79-2.44-3.51-4.41-6.15-3.49l-7.94,2.76c-2.47.86-4.36,3.47-3.49,6.16.78,2.43,3.5,4.41,6.15,3.49Z"/><path class="cls-1" d="M1226.05,307.72a208.84,208.84,0,0,1-34.53,33.1c-2.69,2-3.75,6.84,0,8.64A114.5,114.5,0,0,1,1228.93,378c4.21,4.88,11.26-2.22,7.07-7.07a121.56,121.56,0,0,0-39.43-30.14v8.64a219.77,219.77,0,0,0,36.55-34.67c4.1-4.91-2.94-12-7.07-7.07Z"/><path class="cls-1" d="M1211.32,545.86v-1.57a5.15,5.15,0,0,0-1.47-3.53,3.69,3.69,0,0,0-1.61-1,3.75,3.75,0,0,0-1.92-.44,5.07,5.07,0,0,0-3.54,1.47,5.18,5.18,0,0,0-1.46,3.53v1.57a5.12,5.12,0,0,0,1.46,3.53,3.71,3.71,0,0,0,1.61,1,3.88,3.88,0,0,0,1.93.43,5,5,0,0,0,3.53-1.47,5.17,5.17,0,0,0,1.47-3.53Z"/><path class="cls-1" d="M1167.65,550.14l-1.57-1.56a5.13,5.13,0,0,0-3.53-1.47,3.77,3.77,0,0,0-1.93.43,3.71,3.71,0,0,0-1.61,1,5,5,0,0,0-1.46,3.53,5.21,5.21,0,0,0,1.46,3.54l1.56,1.56a5.16,5.16,0,0,0,3.54,1.46,3.68,3.68,0,0,0,1.93-.43,3.75,3.75,0,0,0,1.61-1,5,5,0,0,0,1.46-3.54,5.25,5.25,0,0,0-1.46-3.53Z"/><path class="cls-1" d="M1192.56,581.81v-1.56a5.17,5.17,0,0,0-1.47-3.54,5.59,5.59,0,0,0-3.53-1.46,5.06,5.06,0,0,0-3.54,1.46,5.19,5.19,0,0,0-1.46,3.54v1.56a5.21,5.21,0,0,0,1.46,3.54,3.84,3.84,0,0,0,1.61,1,3.77,3.77,0,0,0,1.93.43,5.06,5.06,0,0,0,3.53-1.46,5.2,5.2,0,0,0,1.47-3.54Z"/><path class="cls-1" d="M1218.82,583.68c6.44,0,6.45-10,0-10s-6.44,10,0,10Z"/><path class="cls-1" d="M1148.48,594.63H1150a5.17,5.17,0,0,0,3.54-1.47,3.69,3.69,0,0,0,1-1.61,3.74,3.74,0,0,0,.43-1.92,5.06,5.06,0,0,0-1.46-3.54,5.19,5.19,0,0,0-3.54-1.46h-1.56a5.16,5.16,0,0,0-3.54,1.46,5.58,5.58,0,0,0-1.46,3.54,5.06,5.06,0,0,0,1.46,3.53,5.2,5.2,0,0,0,3.54,1.47Z"/><path class="cls-1" d="M990,611.5c-.9-8.13,3.36-16.6,11.68-18.82,9.12-2.43,17,3.07,20.58,11.23,3.7,8.42,7.34,20.41,2.89,29.14-1.82,3.57-5.78,7.61-10.19,7.12-4-.44-7.42-4.34-6.19-8.31,1.91-6.16-7.74-8.79-9.64-2.65-4.52,14.53,12.72,25.26,25,18.72,15.37-8.15,14.23-27.37,9.62-41.52-2.4-7.36-5.64-14.59-12.11-19.24a27.22,27.22,0,0,0-19.33-4.75c-13.89,1.84-23.88,15.25-22.34,29.08.71,6.32,10.72,6.39,10,0Z"/><path class="cls-1" d="M1323.55,444.56h1.57a5.14,5.14,0,0,0,3.53-1.46,3.8,3.8,0,0,0,1-1.61,3.88,3.88,0,0,0,.43-1.93,5.07,5.07,0,0,0-1.47-3.53,5.19,5.19,0,0,0-3.53-1.47h-1.57A5.13,5.13,0,0,0,1320,436a5.53,5.53,0,0,0-1.47,3.53,5.07,5.07,0,0,0,1.47,3.54,5.18,5.18,0,0,0,3.53,1.46Z"/><path class="cls-1" d="M1340.34,468.11l1.56,1.56a5.17,5.17,0,0,0,3.54,1.47,5.53,5.53,0,0,0,3.53-1.47,5,5,0,0,0,1.47-3.53,5.22,5.22,0,0,0-1.47-3.54l-1.56-1.56a5.15,5.15,0,0,0-3.54-1.47,3.84,3.84,0,0,0-1.92.43,3.8,3.8,0,0,0-1.61,1,5,5,0,0,0-1.47,3.53,5.22,5.22,0,0,0,1.47,3.54Z"/><path class="cls-2" d="M1306.77,41.37l.86-.86c4.55-4.56-2.52-11.63-7.07-7.08l-.86.86c-4.56,4.56,2.51,11.63,7.07,7.08l.86-.86c4.55-4.56-2.52-11.63-7.07-7.08l-.86.86c-4.56,4.56,2.51,11.63,7.07,7.08Z"/><path class="cls-2" d="M1276.66,56.9c6.43,0,6.44-10,0-10s-6.45,10,0,10Z"/><path class="cls-1" d="M1096.49,171.11l1.56,1.56a5.15,5.15,0,0,0,3.53,1.47,3.88,3.88,0,0,0,1.93-.43,3.8,3.8,0,0,0,1.61-1,5,5,0,0,0,1.46-3.53,5.21,5.21,0,0,0-1.46-3.54l-1.56-1.56a5.17,5.17,0,0,0-3.54-1.47,3.88,3.88,0,0,0-1.93.43,3.77,3.77,0,0,0-1.6,1,5,5,0,0,0-1.47,3.53,5.22,5.22,0,0,0,1.47,3.54Z"/><path class="cls-1" d="M1119.93,191.43l1.57,1.56a5.13,5.13,0,0,0,3.53,1.47,5.52,5.52,0,0,0,3.54-1.47,5,5,0,0,0,1.46-3.53,5.25,5.25,0,0,0-1.46-3.54l-1.57-1.56a5.13,5.13,0,0,0-3.53-1.47,5.52,5.52,0,0,0-3.54,1.47,5,5,0,0,0-1.46,3.53,5.25,5.25,0,0,0,1.46,3.54Z"/><path class="cls-1" d="M863.76,385.89l1.57-3.13a5.32,5.32,0,0,0,.5-3.85,5,5,0,0,0-6.15-3.49,5,5,0,0,0-3,2.3l-1.56,3.12a5.28,5.28,0,0,0-.51,3.85,5,5,0,0,0,6.15,3.5,5,5,0,0,0,3-2.3Z"/><path class="cls-1" d="M831.16,409.55h-1.57a5.15,5.15,0,0,0-3.53,1.47,5.53,5.53,0,0,0-1.47,3.53,5.07,5.07,0,0,0,1.47,3.54,5.18,5.18,0,0,0,3.53,1.46h1.57a5.16,5.16,0,0,0,3.53-1.46,3.8,3.8,0,0,0,1-1.61,3.88,3.88,0,0,0,.43-1.93,5.07,5.07,0,0,0-1.47-3.53,5.19,5.19,0,0,0-3.53-1.47Z"/><path class="cls-1" d="M1493.94,652.46c6.43,0,6.44-10,0-10s-6.45,10,0,10Z"/><path class="cls-1" d="M1443.92,244.48c6.43,0,6.44-10,0-10s-6.45,10,0,10Z"/><path class="cls-1" d="M817.34,637.76l1.53,6.26a5,5,0,1,0,9.64-2.66L827,635.1a5,5,0,0,0-6.15-3.49,5.11,5.11,0,0,0-3.5,6.15Z"/><path class="cls-1" d="M1564.82,76c3.74-6,8.26-12.15,14.82-15.22,5.61-2.63,13.18-2.78,17.59,2.16,4.6,5.15,5.07,13.58,6.25,20,1.32,7.3,2.94,14.76,6.83,21.19a30.36,30.36,0,0,0,13.27,12.26c6.38,2.83,12.86,2.07,19.47.51,16.71-3.93,33.37-8.09,50-12.13,6.25-1.52,3.61-11.16-2.65-9.64-17.45,4.22-34.9,9.28-52.52,12.69-18.32,3.55-22.82-16.3-25.27-30.13-2.39-13.51-7.28-27.41-23.07-28.68-15-1.2-26.06,10.14-33.4,21.89-3.42,5.48,5.23,10.5,8.63,5Z"/><path class="cls-1" d="M2177.69,375.83a545.24,545.24,0,0,1-4.67-56.07l-9.31,2.52q11.4,25.19,25.18,49.16l6.85-6.84a358.47,358.47,0,0,0-45.47-24.18l-2.52,9.31a292.34,292.34,0,0,0,51.92-11.25l-3.85-9.14c-17.59,9.78-24.28,29.79-29.43,48-1.75,6.2,7.9,8.85,9.65,2.65,4.41-15.63,9.65-33.62,24.83-42.06,4.89-2.72,1.61-10.86-3.85-9.14a276.9,276.9,0,0,1-49.27,10.9c-4.23.54-7.66,7-2.53,9.32a359.75,359.75,0,0,1,45.47,24.18c4.31,2.71,9.27-2.6,6.84-6.84q-13.79-24-25.19-49.16c-2.08-4.6-9.47-2.2-9.32,2.53a568.92,568.92,0,0,0,5,58.73c.87,6.35,10.5,3.65,9.64-2.66Z"/><path class="cls-1" d="M1571.14,500.63q26,40.27,54.35,78.93c3.77,5.14,12.45.16,8.63-5q-28.36-38.64-54.35-78.94c-3.48-5.39-12.14-.38-8.63,5.05Z"/><path class="cls-1" d="M1617,476.84a632.41,632.41,0,0,0,50.38,70.54c4.09,5,11.13-2.13,7.07-7.07a615,615,0,0,1-48.82-68.52c-3.36-5.47-12-.45-8.63,5Z"/><path class="cls-1" d="M1642.25,489.6a326.2,326.2,0,0,0-42.74,57.93c-3.24,5.58,5.4,10.62,8.63,5a314.79,314.79,0,0,1,41.18-55.9c4.36-4.72-2.69-11.81-7.07-7.07Z"/><path class="cls-1" d="M2163.54,35.43a161.07,161.07,0,0,0,59.21,12.89l-3.54-8.53a191.75,191.75,0,0,0-29.49,41.61c-3,5.7,5.64,10.76,8.63,5a181.71,181.71,0,0,1,27.93-39.59,5.06,5.06,0,0,0-3.53-8.54,147.89,147.89,0,0,1-54.16-11.52c-5.86-2.48-11,6.13-5.05,8.63Z"/><path class="cls-1" d="M1924.93,48.83c-.84,8.53-1.71,18.2-7.85,24.78-6.35,6.82-15.46,5-23.34,2.17a58.37,58.37,0,0,1-12-6c-3-1.93-5.58-4.52-8.85-5.89-7.95-3.33-14.29,2.52-19.6,7.74-5.66,5.55-11.21,12-18.89,14.7-8.15,2.9-17.1,1.91-25.37.13-14.44-3.12-32.74-7.38-41.92,8-3.31,5.54,5.34,10.58,8.63,5.05,4.88-8.17,15.69-6.78,23.57-5.05,8.28,1.81,16.51,3.91,25.06,3.65a40.64,40.64,0,0,0,23.52-8c6.28-4.69,11-11.84,17.49-16,4.22-2.72,7.88,2.09,11.32,4.32a66.9,66.9,0,0,0,10.16,5.34c7.72,3.28,16.75,6,25.16,4.06,17.66-4,21.45-23.72,23-39,.63-6.4-9.37-6.36-10,0Z"/><path class="cls-1" d="M1580.17,261.85c4.23-4.11,12.4-10.39,16.78-3,3.58,6.06-1.23,13.51-6.32,16.95-8.6,5.8-21.63,4.5-29-2.82-9.29-9.27-6.8-24.88.08-34.76,8-11.47,21.76-17.3,34.79-20.84,6.2-1.69,3.57-11.34-2.66-9.65-15,4.08-30,11-39.52,23.75-8.7,11.56-11.75,28-5.06,41.26,5.73,11.35,18.83,17.51,31.27,16.55,13.55-1.06,27.42-11.09,27.56-25.78.08-7.51-4.6-15.14-12-17.44-8.83-2.75-17,2.78-23.08,8.67-4.62,4.5,2.45,11.57,7.07,7.07Z"/><path class="cls-1" d="M2035.28,178.63c-.06,5.17-.66,14-7.57,14.25s-10-7.42-10-13.15c-.08-11.42,10.63-21.4,21.74-22,12.33-.72,21.74,10.36,24.81,21.3,4.12,14.66-1.83,30-9.05,42.59-3.2,5.6,5.44,10.64,8.63,5.05,8.26-14.46,14.33-31.44,10.59-48.23-2.94-13.2-12.44-25.58-25.69-29.53-13.09-3.9-27.17,2.3-35,13s-8.84,27.89,2.31,36.81c6.22,5,15.54,5.78,21.86.53,6-5,7.34-13.2,7.43-20.6.07-6.44-9.93-6.45-10,0Z"/><path class="cls-1" d="M1784.44,290.48c-7.63-9.58-21.73-11.1-32.35-5.91-11.87,5.81-17.3,19.84-16.15,32.48,1.29,14.18,10.07,26,21.07,34.52,5.83,4.51,13.67,7.54,18.37,13.31s6,13.89,7.36,21.05c1.19,6.31,10.83,3.64,9.65-2.66-2.23-11.89-5.49-23.13-15.69-30.57s-20.73-12.66-27-24.18c-5.27-9.64-5.8-23.17,2.21-31.56,6.86-7.2,19.23-7.27,25.49.59,4,5,11-2.09,7.07-7.07Z"/><path class="cls-1" d="M1790.48,412.93v1.35a4.8,4.8,0,0,0,3.07,4.57,3.68,3.68,0,0,0,1.93.43l1.33-.18a4.91,4.91,0,0,0,2.2-1.28,5.2,5.2,0,0,0,1.47-3.54v-1.35a3.84,3.84,0,0,0-.43-1.92,5.2,5.2,0,0,0-4.57-3.08l-1.33.18a5.05,5.05,0,0,0-2.21,1.29,5.18,5.18,0,0,0-1.46,3.53Z"/><path class="cls-1" d="M2174.71,536.62a215,215,0,0,1-28.87,69.19c-3.48,5.44,5.17,10.46,8.64,5.05a223.28,223.28,0,0,0,29.87-71.58c1.41-6.27-8.23-8.94-9.64-2.66Z"/><path class="cls-1" d="M2115.46,653.43l7.94-2.77c2.47-.85,4.37-3.46,3.5-6.15-.79-2.44-3.51-4.41-6.16-3.49l-7.94,2.76c-2.46.86-4.36,3.47-3.49,6.16.79,2.43,3.51,4.41,6.15,3.49Z"/><path class="cls-1" d="M1962.07,307.72a208.84,208.84,0,0,1-34.53,33.1c-2.7,2-3.76,6.84,0,8.64a114.46,114.46,0,0,1,37.4,28.57c4.22,4.88,11.27-2.22,7.07-7.07a121.56,121.56,0,0,0-39.43-30.14v8.64a219.44,219.44,0,0,0,36.56-34.67c4.09-4.91-3-12-7.07-7.07Z"/><path class="cls-1" d="M1947.33,545.86v-1.57a5.18,5.18,0,0,0-1.46-3.53,5.67,5.67,0,0,0-3.54-1.47,5.11,5.11,0,0,0-3.54,1.47,5.23,5.23,0,0,0-1.46,3.53v1.57a5.16,5.16,0,0,0,1.46,3.53,3.77,3.77,0,0,0,1.61,1,3.88,3.88,0,0,0,1.93.43,5.06,5.06,0,0,0,3.54-1.47,5.21,5.21,0,0,0,1.46-3.53Z"/><path class="cls-1" d="M1903.66,550.14l-1.56-1.56a5.17,5.17,0,0,0-3.54-1.47,5.53,5.53,0,0,0-3.53,1.47,5,5,0,0,0-1.47,3.53,5.22,5.22,0,0,0,1.47,3.54l1.56,1.56a5.14,5.14,0,0,0,3.54,1.46,3.64,3.64,0,0,0,1.92-.43,3.69,3.69,0,0,0,1.61-1,5,5,0,0,0,1.47-3.54,5.21,5.21,0,0,0-1.47-3.53Z"/><path class="cls-1" d="M1928.57,581.81v-1.56a5.21,5.21,0,0,0-1.46-3.54,3.69,3.69,0,0,0-1.61-1,3.77,3.77,0,0,0-1.93-.43,5.06,5.06,0,0,0-3.53,1.46,5.2,5.2,0,0,0-1.47,3.54v1.56a5.17,5.17,0,0,0,1.47,3.54,3.78,3.78,0,0,0,1.61,1,3.72,3.72,0,0,0,1.92.43,5.06,5.06,0,0,0,3.54-1.46,5.19,5.19,0,0,0,1.46-3.54Z"/><path class="cls-1" d="M1954.84,583.68c6.43,0,6.44-10,0-10s-6.45,10,0,10Z"/><path class="cls-1" d="M1884.49,594.63h1.57a5.13,5.13,0,0,0,3.53-1.47,3.8,3.8,0,0,0,1-1.61,3.84,3.84,0,0,0,.43-1.92,5.07,5.07,0,0,0-1.47-3.54,5.18,5.18,0,0,0-3.53-1.46h-1.57a5.12,5.12,0,0,0-3.53,1.46,3.8,3.8,0,0,0-1,1.61,3.88,3.88,0,0,0-.43,1.93,5.07,5.07,0,0,0,1.47,3.53,5.19,5.19,0,0,0,3.53,1.47Z"/><path class="cls-1" d="M1726,611.5c-.91-8.13,3.35-16.6,11.67-18.82,9.13-2.43,17,3.07,20.59,11.23,3.7,8.42,7.33,20.41,2.89,29.14-1.82,3.57-5.78,7.61-10.2,7.12-4-.44-7.42-4.34-6.19-8.31,1.92-6.16-7.73-8.79-9.64-2.65-4.52,14.53,12.73,25.26,25,18.72,15.36-8.15,14.22-27.37,9.61-41.52-2.39-7.36-5.63-14.59-12.11-19.24a27.2,27.2,0,0,0-19.32-4.75c-13.9,1.84-23.89,15.25-22.34,29.08.7,6.32,10.71,6.39,10,0Z"/><path class="cls-1" d="M2059.57,444.56h1.56a5.16,5.16,0,0,0,3.54-1.46,5.58,5.58,0,0,0,1.46-3.54,5.06,5.06,0,0,0-1.46-3.53,5.2,5.2,0,0,0-3.54-1.47h-1.56A5.17,5.17,0,0,0,2056,436a5.59,5.59,0,0,0-1.46,3.53,5.06,5.06,0,0,0,1.46,3.54,5.19,5.19,0,0,0,3.54,1.46Z"/><path class="cls-1" d="M2076.35,468.11l1.57,1.56a5.13,5.13,0,0,0,3.53,1.47,5.52,5.52,0,0,0,3.54-1.47,5,5,0,0,0,1.46-3.53,5.25,5.25,0,0,0-1.46-3.54l-1.57-1.56a5.13,5.13,0,0,0-3.53-1.47,5.52,5.52,0,0,0-3.54,1.47,5,5,0,0,0-1.46,3.53,5.25,5.25,0,0,0,1.46,3.54Z"/><path class="cls-2" d="M2042.78,41.37l.86-.86c4.56-4.56-2.51-11.63-7.07-7.08l-.86.86c-4.56,4.56,2.51,11.63,7.07,7.08l.86-.86c4.56-4.56-2.51-11.63-7.07-7.08l-.86.86c-4.56,4.56,2.51,11.63,7.07,7.08Z"/><path class="cls-2" d="M2012.67,56.9c6.44,0,6.45-10,0-10s-6.44,10,0,10Z"/><path class="cls-1" d="M1832.5,171.11l1.56,1.56a5.17,5.17,0,0,0,3.54,1.47,5.53,5.53,0,0,0,3.53-1.47,5,5,0,0,0,1.47-3.53,5.22,5.22,0,0,0-1.47-3.54l-1.56-1.56a5.15,5.15,0,0,0-3.53-1.47,3.85,3.85,0,0,0-1.93.43,3.8,3.8,0,0,0-1.61,1,5,5,0,0,0-1.46,3.53,5.16,5.16,0,0,0,1.46,3.54Z"/><path class="cls-1" d="M1856,191.43l1.56,1.56a5.15,5.15,0,0,0,3.54,1.47A3.84,3.84,0,0,0,1863,194a3.8,3.8,0,0,0,1.61-1,5,5,0,0,0,1.47-3.53,5.22,5.22,0,0,0-1.47-3.54l-1.56-1.56a5.17,5.17,0,0,0-3.54-1.47,5.53,5.53,0,0,0-3.53,1.47,5,5,0,0,0-1.47,3.53,5.22,5.22,0,0,0,1.47,3.54Z"/><path class="cls-1" d="M1599.77,385.89l1.57-3.13a5.32,5.32,0,0,0,.51-3.85,5.11,5.11,0,0,0-2.3-3,5,5,0,0,0-3.85-.5,5,5,0,0,0-3,2.3l-1.57,3.12a5.27,5.27,0,0,0-.5,3.85,5,5,0,0,0,6.15,3.5,5,5,0,0,0,3-2.3Z"/><path class="cls-1" d="M1567.17,409.55h-1.56a5.17,5.17,0,0,0-3.54,1.47,3.78,3.78,0,0,0-1,1.61,3.72,3.72,0,0,0-.43,1.92,5.06,5.06,0,0,0,1.46,3.54,5.19,5.19,0,0,0,3.54,1.46h1.56a5.21,5.21,0,0,0,3.54-1.46,5.58,5.58,0,0,0,1.46-3.54,5.06,5.06,0,0,0-1.46-3.53,5.2,5.2,0,0,0-3.54-1.47Z"/><path class="cls-1" d="M2230,652.46c6.44,0,6.45-10,0-10s-6.44,10,0,10Z"/><path class="cls-1" d="M2179.93,244.48c6.44,0,6.45-10,0-10s-6.44,10,0,10Z"/><path class="cls-1" d="M1553.36,637.76l1.53,6.26a5,5,0,0,0,6.15,3.49,5.11,5.11,0,0,0,3.49-6.15L1563,635.1a5,5,0,0,0-6.15-3.49,5.1,5.1,0,0,0-3.49,6.15Z"/><path class="cls-1" d="M62,749.28c3.73-6,8.25-12.14,14.81-15.22,5.61-2.63,13.18-2.78,17.59,2.16,4.6,5.16,5.08,13.59,6.25,20,1.32,7.3,2.94,14.77,6.83,21.2a30.28,30.28,0,0,0,13.27,12.25c6.39,2.83,12.86,2.07,19.47.51,16.71-3.92,33.37-8.08,50-12.13,6.26-1.51,3.61-11.16-2.65-9.64-17.45,4.23-34.9,9.28-52.52,12.7-18.32,3.55-22.82-16.3-25.27-30.14-2.39-13.51-7.28-27.41-23.07-28.67-15-1.2-26.06,10.14-33.4,21.89-3.42,5.47,5.23,10.5,8.64,5Z"/><path class="cls-1" d="M674.85,1049.09A545.42,545.42,0,0,1,670.19,993l-9.32,2.52q11.4,25.19,25.19,49.16l6.84-6.84a359.75,359.75,0,0,0-45.47-24.18l-2.52,9.32a291.78,291.78,0,0,0,51.93-11.26l-3.86-9.14c-17.59,9.79-24.28,29.8-29.43,48-1.75,6.2,7.9,8.85,9.65,2.66,4.41-15.64,9.66-33.62,24.83-42.06,4.89-2.72,1.61-10.87-3.85-9.14a278.66,278.66,0,0,1-49.27,10.9c-4.23.53-7.66,7-2.53,9.32a357.2,357.2,0,0,1,45.47,24.18c4.32,2.71,9.27-2.61,6.84-6.84q-13.77-24-25.19-49.16c-2.08-4.6-9.47-2.21-9.31,2.52a565.9,565.9,0,0,0,5,58.73c.87,6.35,10.5,3.65,9.64-2.65Z"/><path class="cls-1" d="M68.3,1173.88q26,40.29,54.35,78.94c3.77,5.13,12.45.15,8.64-5q-28.38-38.64-54.36-78.93c-3.47-5.39-12.13-.39-8.63,5Z"/><path class="cls-1" d="M114.13,1150.1a634.63,634.63,0,0,0,50.38,70.54c4.09,5,11.13-2.14,7.07-7.08a615.84,615.84,0,0,1-48.82-68.51c-3.36-5.47-12-.46-8.63,5Z"/><path class="cls-1" d="M139.41,1162.85a326.93,326.93,0,0,0-42.74,57.93c-3.24,5.58,5.4,10.62,8.63,5a314.86,314.86,0,0,1,41.18-55.91c4.36-4.72-2.69-11.81-7.07-7.07Z"/><path class="cls-1" d="M660.7,708.69a161.12,161.12,0,0,0,59.21,12.89L716.37,713a191.81,191.81,0,0,0-29.49,41.62c-3,5.69,5.64,10.76,8.63,5.05a182,182,0,0,1,27.93-39.6,5.06,5.06,0,0,0-3.53-8.53,148.1,148.1,0,0,1-54.16-11.53c-5.86-2.48-11,6.13-5,8.64Z"/><path class="cls-1" d="M422.09,722.08c-.84,8.53-1.71,18.2-7.84,24.78-6.36,6.83-15.47,5-23.34,2.17a57.71,57.71,0,0,1-12.05-6c-2.95-1.92-5.58-4.51-8.85-5.88-7.95-3.34-14.29,2.52-19.6,7.74-5.66,5.55-11.21,12-18.89,14.69-8.15,2.9-17.1,1.92-25.37.13-14.44-3.12-32.74-7.38-41.92,8-3.31,5.54,5.34,10.58,8.63,5,4.88-8.17,15.69-6.78,23.57-5,8.28,1.82,16.51,3.91,25.06,3.65a40.7,40.7,0,0,0,23.52-8c6.28-4.7,11-11.84,17.49-16,4.22-2.73,7.88,2.09,11.32,4.31A66.12,66.12,0,0,0,384,757c7.71,3.29,16.74,6,25.15,4.06,17.67-4,21.45-23.71,22.95-39,.64-6.4-9.37-6.35-10,0Z"/><path class="cls-1" d="M77.33,935.11c4.23-4.11,12.4-10.39,16.78-3,3.58,6.06-1.23,13.51-6.32,16.94-8.6,5.8-21.63,4.5-29-2.81-9.29-9.27-6.8-24.89.08-34.76,8-11.47,21.76-17.31,34.79-20.85C99.91,889,97.27,879.33,91,881c-15,4.08-29.95,11-39.52,23.74-8.7,11.56-11.75,28-5.06,41.26,5.73,11.35,18.83,17.52,31.27,16.55,13.55-1.05,27.42-11.09,27.56-25.77.08-7.52-4.59-15.15-12-17.44-8.83-2.76-17,2.78-23.08,8.67-4.62,4.49,2.45,11.56,7.07,7.07Z"/><path class="cls-1" d="M532.44,851.88c-.06,5.17-.65,14-7.56,14.25s-10-7.42-10.06-13.15c-.07-11.42,10.63-21.4,21.74-22,12.33-.72,21.74,10.35,24.81,21.29,4.12,14.66-1.83,30-9,42.6-3.2,5.59,5.44,10.64,8.63,5,8.26-14.45,14.33-31.44,10.59-48.23-2.93-13.2-12.44-25.58-25.69-29.53-13.09-3.9-27.16,2.3-35,13S502,863,513.15,872c6.22,5,15.54,5.79,21.86.54,6-5,7.35-13.21,7.43-20.61.08-6.44-9.92-6.44-10,0Z"/><path class="cls-1" d="M281.6,963.73c-7.63-9.57-21.73-11.09-32.35-5.9-11.87,5.81-17.3,19.84-16.15,32.47,1.29,14.19,10.07,26,21.07,34.52,5.83,4.51,13.67,7.54,18.37,13.32s6,13.89,7.36,21c1.19,6.32,10.83,3.64,9.65-2.66-2.23-11.89-5.48-23.13-15.69-30.57s-20.73-12.65-27-24.18c-5.27-9.64-5.8-23.17,2.21-31.56,6.86-7.2,19.23-7.27,25.49.59,4,5,11.05-2.08,7.07-7.07Z"/><path class="cls-1" d="M287.64,1086.19v1.35a3.72,3.72,0,0,0,.43,1.92,3.78,3.78,0,0,0,1,1.61,5.52,5.52,0,0,0,3.54,1.47l1.33-.18a5.05,5.05,0,0,0,2.21-1.29,5.23,5.23,0,0,0,1.46-3.53v-1.35a3.77,3.77,0,0,0-.43-1.93,4.45,4.45,0,0,0-2.64-2.64,3.77,3.77,0,0,0-1.93-.43l-1.33.18a4.94,4.94,0,0,0-2.21,1.28,5.23,5.23,0,0,0-1.46,3.54Z"/><path class="cls-1" d="M671.87,1209.88A215.2,215.2,0,0,1,643,1279.07c-3.48,5.43,5.17,10.45,8.64,5a223.22,223.22,0,0,0,29.87-71.57c1.41-6.27-8.23-9-9.64-2.66Z"/><path class="cls-1" d="M612.62,1326.68l7.94-2.76c2.47-.86,4.37-3.47,3.5-6.15-.79-2.44-3.51-4.42-6.15-3.5L610,1317c-2.46.86-4.36,3.46-3.49,6.15.79,2.44,3.51,4.41,6.15,3.49Z"/><path class="cls-1" d="M459.23,981a209.31,209.31,0,0,1-34.53,33.11c-2.7,2-3.75,6.83,0,8.63a114.49,114.49,0,0,1,37.4,28.58c4.22,4.88,11.27-2.22,7.07-7.07a121.31,121.31,0,0,0-39.43-30.14v8.63A219,219,0,0,0,466.3,988c4.09-4.91-2.95-12-7.07-7.07Z"/><path class="cls-1" d="M444.49,1219.11v-1.56A5.21,5.21,0,0,0,443,1214a3.84,3.84,0,0,0-1.61-1,3.77,3.77,0,0,0-1.93-.43A5.06,5.06,0,0,0,436,1214a5.2,5.2,0,0,0-1.47,3.54v1.56a5.17,5.17,0,0,0,1.47,3.54,5.53,5.53,0,0,0,3.53,1.46,5.08,5.08,0,0,0,3.54-1.46,5.23,5.23,0,0,0,1.46-3.54Z"/><path class="cls-1" d="M400.82,1223.39l-1.56-1.56a5.17,5.17,0,0,0-3.54-1.47,5.53,5.53,0,0,0-3.53,1.47,5,5,0,0,0-1.47,3.53,5.22,5.22,0,0,0,1.47,3.54l1.56,1.56a5.15,5.15,0,0,0,3.54,1.47,3.84,3.84,0,0,0,1.92-.43,3.71,3.71,0,0,0,1.61-1,5,5,0,0,0,1.47-3.53,5.22,5.22,0,0,0-1.47-3.54Z"/><path class="cls-1" d="M425.73,1255.06v-1.56a5.12,5.12,0,0,0-1.46-3.53,3.71,3.71,0,0,0-1.61-1,3.88,3.88,0,0,0-1.93-.43,5,5,0,0,0-3.53,1.47,5.17,5.17,0,0,0-1.47,3.53v1.56a5.15,5.15,0,0,0,1.47,3.54,3.69,3.69,0,0,0,1.61,1,3.64,3.64,0,0,0,1.92.43,5,5,0,0,0,3.54-1.46,5.19,5.19,0,0,0,1.46-3.54Z"/><path class="cls-1" d="M452,1256.94c6.43,0,6.44-10,0-10s-6.45,10,0,10Z"/><path class="cls-1" d="M381.65,1267.88h1.57a5.16,5.16,0,0,0,3.53-1.46,3.77,3.77,0,0,0,1-1.61,3.88,3.88,0,0,0,.43-1.93,5.11,5.11,0,0,0-1.47-3.54,5.23,5.23,0,0,0-3.53-1.46h-1.57a5.18,5.18,0,0,0-3.53,1.46,5.67,5.67,0,0,0-1.47,3.54,5.11,5.11,0,0,0,1.47,3.54,5.23,5.23,0,0,0,3.53,1.46Z"/><path class="cls-1" d="M223.15,1284.75c-.91-8.13,3.35-16.6,11.67-18.82,9.13-2.43,17,3.08,20.59,11.23,3.7,8.42,7.33,20.41,2.89,29.14-1.82,3.58-5.78,7.61-10.2,7.12-4-.44-7.42-4.34-6.18-8.3,1.91-6.16-7.74-8.8-9.65-2.66-4.51,14.53,12.73,25.26,25,18.73,15.36-8.16,14.23-27.37,9.61-41.53-2.39-7.36-5.63-14.59-12.11-19.23a27.24,27.24,0,0,0-19.32-4.76c-13.9,1.84-23.88,15.25-22.34,29.08.7,6.33,10.71,6.4,10,0Z"/><path class="cls-1" d="M556.73,1117.82h1.56a5.17,5.17,0,0,0,3.54-1.47,3.78,3.78,0,0,0,1-1.61,3.72,3.72,0,0,0,.43-1.92,5.06,5.06,0,0,0-1.46-3.54,5.19,5.19,0,0,0-3.54-1.46h-1.56a5.16,5.16,0,0,0-3.54,1.46,5.58,5.58,0,0,0-1.46,3.54,5.06,5.06,0,0,0,1.46,3.53,5.2,5.2,0,0,0,3.54,1.47Z"/><path class="cls-1" d="M573.51,1141.36l1.57,1.57a5.16,5.16,0,0,0,3.53,1.46,5.58,5.58,0,0,0,3.54-1.46,5.07,5.07,0,0,0,1.46-3.54,5.21,5.21,0,0,0-1.46-3.54l-1.56-1.56a5.16,5.16,0,0,0-3.54-1.46,3.68,3.68,0,0,0-1.93.43,3.75,3.75,0,0,0-1.61,1,5.05,5.05,0,0,0-1.46,3.54,5.23,5.23,0,0,0,1.46,3.53Z"/><path class="cls-1" d="M539.94,714.62l.86-.86c4.56-4.56-2.51-11.63-7.07-7.07l-.86.86c-4.55,4.56,2.51,11.63,7.07,7.07l.86-.86c4.56-4.56-2.51-11.63-7.07-7.07l-.86.86c-4.55,4.56,2.51,11.63,7.07,7.07Z"/><path class="cls-1" d="M509.83,730.15c6.44,0,6.45-10,0-10s-6.44,10,0,10Z"/><path class="cls-1" d="M329.66,844.36l1.56,1.57a5.21,5.21,0,0,0,3.54,1.46,3.77,3.77,0,0,0,1.93-.43,3.84,3.84,0,0,0,1.61-1,5.07,5.07,0,0,0,1.46-3.54,5.25,5.25,0,0,0-1.46-3.54l-1.57-1.56a5.12,5.12,0,0,0-3.53-1.46,5.58,5.58,0,0,0-3.54,1.46,5,5,0,0,0-1.46,3.54,5.18,5.18,0,0,0,1.46,3.53Z"/><path class="cls-1" d="M353.11,864.68l1.56,1.57a5.19,5.19,0,0,0,3.54,1.46,3.72,3.72,0,0,0,1.92-.43,3.78,3.78,0,0,0,1.61-1,5,5,0,0,0,1.47-3.54,5.17,5.17,0,0,0-1.47-3.53l-1.56-1.57a5.19,5.19,0,0,0-3.54-1.46,3.74,3.74,0,0,0-1.92.43,3.69,3.69,0,0,0-1.61,1,5,5,0,0,0-1.47,3.54,5.19,5.19,0,0,0,1.47,3.53Z"/><path class="cls-1" d="M96.94,1059.14,98.5,1056a5.28,5.28,0,0,0,.51-3.85,5.11,5.11,0,0,0-2.3-3,5,5,0,0,0-3.85-.51,5,5,0,0,0-3,2.3l-1.57,3.12a5.34,5.34,0,0,0-.5,3.86,5,5,0,0,0,9.14,1.19Z"/><path class="cls-1" d="M64.33,1082.81H62.77a5.16,5.16,0,0,0-3.54,1.46,5.58,5.58,0,0,0-1.46,3.54,5.06,5.06,0,0,0,1.46,3.53,5.2,5.2,0,0,0,3.54,1.47h1.56a5.17,5.17,0,0,0,3.54-1.47,3.69,3.69,0,0,0,1-1.61,3.64,3.64,0,0,0,.43-1.92,5.06,5.06,0,0,0-1.46-3.54,5.19,5.19,0,0,0-3.54-1.46Z"/><path class="cls-1" d="M727.11,1325.72c6.44,0,6.45-10,0-10s-6.44,10,0,10Z"/><path class="cls-1" d="M677.09,917.73c6.44,0,6.45-10,0-10s-6.44,10,0,10Z"/><path class="cls-1" d="M50.52,1311l1.53,6.26a5,5,0,0,0,6.15,3.49,5.1,5.1,0,0,0,3.49-6.15l-1.53-6.26a5,5,0,0,0-6.15-3.49,5.11,5.11,0,0,0-3.49,6.15Z"/><path class="cls-1" d="M828.81,749.28c3.73-6,8.26-12.14,14.82-15.22,5.61-2.63,13.18-2.78,17.59,2.16,4.6,5.16,5.07,13.59,6.24,20,1.33,7.3,2.95,14.77,6.84,21.2a30.22,30.22,0,0,0,13.27,12.25c6.38,2.83,12.85,2.07,19.47.51,16.71-3.92,33.37-8.08,50.05-12.13,6.25-1.51,3.6-11.16-2.66-9.64-17.44,4.23-34.89,9.28-52.51,12.7-18.32,3.55-22.82-16.3-25.27-30.14-2.39-13.51-7.28-27.41-23.08-28.67-15-1.2-26.05,10.14-33.39,21.89-3.42,5.47,5.22,10.5,8.63,5Z"/><path class="cls-1" d="M1441.68,1049.09A542.64,542.64,0,0,1,1437,993l-9.32,2.52q11.41,25.19,25.19,49.16l6.84-6.84a360.31,360.31,0,0,0-45.46-24.18l-2.53,9.32a291.59,291.59,0,0,0,51.93-11.26l-3.85-9.14c-17.6,9.79-24.28,29.8-29.43,48-1.75,6.2,7.89,8.85,9.64,2.66,4.41-15.64,9.66-33.62,24.83-42.06,4.9-2.72,1.61-10.87-3.85-9.14a278.66,278.66,0,0,1-49.27,10.9c-4.23.53-7.65,7-2.52,9.32a357.07,357.07,0,0,1,45.46,24.18c4.32,2.71,9.28-2.61,6.84-6.84q-13.77-24-25.18-49.16c-2.09-4.6-9.47-2.21-9.32,2.52a571.46,571.46,0,0,0,5,58.73c.87,6.35,10.51,3.65,9.65-2.65Z"/><path class="cls-1" d="M835.12,1173.88q26,40.29,54.36,78.94c3.76,5.13,12.45.15,8.63-5q-28.36-38.64-54.35-78.93c-3.48-5.39-12.14-.39-8.64,5Z"/><path class="cls-1" d="M881,1150.1a635.94,635.94,0,0,0,50.38,70.54c4.09,5,11.13-2.14,7.08-7.08a614.54,614.54,0,0,1-48.82-68.51c-3.37-5.47-12-.46-8.64,5Z"/><path class="cls-1" d="M906.24,1162.85a327,327,0,0,0-42.75,57.93c-3.23,5.58,5.41,10.62,8.64,5a314.37,314.37,0,0,1,41.18-55.91c4.36-4.72-2.7-11.81-7.07-7.07Z"/><path class="cls-1" d="M1427.53,708.69a161.07,161.07,0,0,0,59.2,12.89L1483.2,713a191.85,191.85,0,0,0-29.5,41.62c-3,5.69,5.65,10.76,8.64,5.05a181.67,181.67,0,0,1,27.93-39.6,5.06,5.06,0,0,0-3.54-8.53,148,148,0,0,1-54.15-11.53c-5.86-2.48-11,6.13-5,8.64Z"/><path class="cls-1" d="M1188.92,722.08c-.84,8.53-1.71,18.2-7.85,24.78-6.36,6.83-15.46,5-23.34,2.17a57.63,57.63,0,0,1-12-6c-3-1.92-5.59-4.51-8.86-5.88-7.95-3.34-14.28,2.52-19.6,7.74-5.65,5.55-11.21,12-18.88,14.69-8.15,2.9-17.1,1.92-25.37.13-14.44-3.12-32.75-7.38-41.93,8-3.3,5.54,5.34,10.58,8.64,5,4.87-8.17,15.68-6.78,23.57-5,8.28,1.82,16.5,3.91,25.06,3.65a40.7,40.7,0,0,0,23.52-8c6.27-4.7,11-11.84,17.48-16,4.22-2.73,7.88,2.09,11.32,4.31a66.12,66.12,0,0,0,10.17,5.34c7.72,3.29,16.74,6,25.16,4.06,17.66-4,21.44-23.71,23-39,.63-6.4-9.37-6.35-10,0Z"/><path class="cls-1" d="M844.15,935.11c4.23-4.11,12.4-10.39,16.79-3,3.58,6.06-1.23,13.51-6.32,16.94-8.6,5.8-21.63,4.5-29-2.81-9.29-9.27-6.81-24.89.07-34.76,8-11.47,21.77-17.31,34.8-20.85,6.2-1.69,3.57-11.34-2.66-9.64-15,4.08-30,11-39.53,23.74-8.7,11.56-11.74,28-5.06,41.26,5.73,11.35,18.84,17.52,31.27,16.55,13.55-1.05,27.42-11.09,27.57-25.77.07-7.52-4.6-15.15-12-17.44-8.82-2.76-17,2.78-23.08,8.67-4.62,4.49,2.46,11.56,7.07,7.07Z"/><path class="cls-1" d="M1299.27,851.88c-.06,5.17-.66,14-7.57,14.25s-10-7.42-10-13.15c-.08-11.42,10.63-21.4,21.73-22,12.34-.72,21.74,10.35,24.82,21.29,4.11,14.66-1.84,30-9.06,42.6-3.2,5.59,5.44,10.64,8.64,5,8.26-14.45,14.32-31.44,10.59-48.23-2.94-13.2-12.44-25.58-25.7-29.53-13.08-3.9-27.16,2.3-35,13S1268.83,863,1280,872c6.23,5,15.54,5.79,21.86.54,6-5,7.35-13.21,7.44-20.61.07-6.44-9.93-6.44-10,0Z"/><path class="cls-1" d="M1048.43,963.73c-7.63-9.57-21.74-11.09-32.35-5.9-11.88,5.81-17.3,19.84-16.15,32.47,1.29,14.19,10.06,26,21.06,34.52,5.84,4.51,13.67,7.54,18.38,13.32s6,13.89,7.36,21c1.18,6.32,10.82,3.64,9.64-2.66-2.23-11.89-5.48-23.13-15.69-30.57s-20.73-12.65-27-24.18c-5.26-9.64-5.79-23.17,2.21-31.56,6.86-7.2,19.23-7.27,25.5.59,4,5,11-2.08,7.07-7.07Z"/><path class="cls-1" d="M1054.46,1086.19v1.35a5.15,5.15,0,0,0,5,5l1.33-.18a5,5,0,0,0,2.21-1.29,5.18,5.18,0,0,0,1.46-3.53v-1.35a3.68,3.68,0,0,0-.43-1.93,5.13,5.13,0,0,0-4.57-3.07l-1.33.18a4.91,4.91,0,0,0-2.2,1.28,5.2,5.2,0,0,0-1.47,3.54Z"/><path class="cls-1" d="M1438.69,1209.88a215.18,215.18,0,0,1-28.86,69.19c-3.49,5.43,5.17,10.45,8.63,5a223.25,223.25,0,0,0,29.88-71.57c1.4-6.27-8.24-9-9.65-2.66Z"/><path class="cls-1" d="M1379.45,1326.68l7.94-2.76c2.46-.86,4.36-3.47,3.49-6.15-.79-2.44-3.51-4.42-6.15-3.5l-7.94,2.77c-2.47.86-4.36,3.46-3.49,6.15.78,2.44,3.5,4.41,6.15,3.49Z"/><path class="cls-1" d="M1226.05,981a209.31,209.31,0,0,1-34.53,33.11c-2.69,2-3.75,6.83,0,8.63a114.53,114.53,0,0,1,37.41,28.58c4.21,4.88,11.26-2.22,7.07-7.07a121.42,121.42,0,0,0-39.43-30.14v8.63A219.36,219.36,0,0,0,1233.12,988c4.1-4.91-2.94-12-7.07-7.07Z"/><path class="cls-1" d="M1211.32,1219.11v-1.56a5.17,5.17,0,0,0-1.47-3.54,3.78,3.78,0,0,0-1.61-1,3.74,3.74,0,0,0-1.92-.43,5.06,5.06,0,0,0-3.54,1.46,5.19,5.19,0,0,0-1.46,3.54v1.56a5.16,5.16,0,0,0,1.46,3.54,5.58,5.58,0,0,0,3.54,1.46,5.06,5.06,0,0,0,3.53-1.46,5.2,5.2,0,0,0,1.47-3.54Z"/><path class="cls-1" d="M1167.65,1223.39l-1.57-1.56a5.13,5.13,0,0,0-3.53-1.47,3.88,3.88,0,0,0-1.93.43,3.8,3.8,0,0,0-1.61,1,5,5,0,0,0-1.46,3.53,5.21,5.21,0,0,0,1.46,3.54l1.56,1.56a5.17,5.17,0,0,0,3.54,1.47,3.88,3.88,0,0,0,1.93-.43,3.77,3.77,0,0,0,1.61-1,5,5,0,0,0,1.46-3.53,5.25,5.25,0,0,0-1.46-3.54Z"/><path class="cls-1" d="M1192.56,1255.06v-1.56a5.13,5.13,0,0,0-1.47-3.53,3.71,3.71,0,0,0-1.61-1,3.82,3.82,0,0,0-1.92-.43A5,5,0,0,0,1184,1250a5.16,5.16,0,0,0-1.46,3.53v1.56a5.19,5.19,0,0,0,1.46,3.54,3.75,3.75,0,0,0,1.61,1,3.68,3.68,0,0,0,1.93.43,5,5,0,0,0,3.53-1.46,5.2,5.2,0,0,0,1.47-3.54Z"/><path class="cls-1" d="M1218.82,1256.94c6.44,0,6.45-10,0-10s-6.44,10,0,10Z"/><path class="cls-1" d="M1148.48,1267.88H1150a5.21,5.21,0,0,0,3.54-1.46,5.58,5.58,0,0,0,1.46-3.54,5.1,5.1,0,0,0-1.46-3.54,5.23,5.23,0,0,0-3.54-1.46h-1.56a5.21,5.21,0,0,0-3.54,1.46,3.84,3.84,0,0,0-1,1.61,3.77,3.77,0,0,0-.43,1.93,5.1,5.1,0,0,0,1.46,3.54,5.23,5.23,0,0,0,3.54,1.46Z"/><path class="cls-1" d="M990,1284.75c-.9-8.13,3.36-16.6,11.68-18.82,9.12-2.43,17,3.08,20.58,11.23,3.7,8.42,7.34,20.41,2.89,29.14-1.82,3.58-5.78,7.61-10.19,7.12-4-.44-7.42-4.34-6.19-8.3,1.91-6.16-7.74-8.8-9.64-2.66-4.52,14.53,12.72,25.26,25,18.73,15.37-8.16,14.23-27.37,9.62-41.53-2.4-7.36-5.64-14.59-12.11-19.23a27.28,27.28,0,0,0-19.33-4.76c-13.89,1.84-23.88,15.25-22.34,29.08.71,6.33,10.72,6.4,10,0Z"/><path class="cls-1" d="M1323.55,1117.82h1.57a5.15,5.15,0,0,0,3.53-1.47,5.53,5.53,0,0,0,1.47-3.53,5.07,5.07,0,0,0-1.47-3.54,5.18,5.18,0,0,0-3.53-1.46h-1.57a5.12,5.12,0,0,0-3.53,1.46,3.8,3.8,0,0,0-1,1.61,3.88,3.88,0,0,0-.43,1.93,5.07,5.07,0,0,0,1.47,3.53,5.19,5.19,0,0,0,3.53,1.47Z"/><path class="cls-1" d="M1340.34,1141.36l1.56,1.57a5.21,5.21,0,0,0,3.54,1.46,3.72,3.72,0,0,0,1.92-.43,3.78,3.78,0,0,0,1.61-1,5,5,0,0,0,1.47-3.54,5.22,5.22,0,0,0-1.47-3.54l-1.56-1.56a5.14,5.14,0,0,0-3.54-1.46,3.64,3.64,0,0,0-1.92.43,3.69,3.69,0,0,0-1.61,1,5,5,0,0,0-1.47,3.54,5.19,5.19,0,0,0,1.47,3.53Z"/><path class="cls-1" d="M1306.77,714.62l.86-.86c4.55-4.56-2.52-11.63-7.07-7.07l-.86.86c-4.56,4.56,2.51,11.63,7.07,7.07l.86-.86c4.55-4.56-2.52-11.63-7.07-7.07l-.86.86c-4.56,4.56,2.51,11.63,7.07,7.07Z"/><path class="cls-1" d="M1276.66,730.15c6.43,0,6.44-10,0-10s-6.45,10,0,10Z"/><path class="cls-1" d="M1096.49,844.36l1.56,1.57a5.18,5.18,0,0,0,3.53,1.46,5.58,5.58,0,0,0,3.54-1.46,5.07,5.07,0,0,0,1.46-3.54,5.21,5.21,0,0,0-1.46-3.54l-1.56-1.56a5.16,5.16,0,0,0-3.54-1.46,5.53,5.53,0,0,0-3.53,1.46,5,5,0,0,0-1.47,3.54,5.19,5.19,0,0,0,1.47,3.53Z"/><path class="cls-1" d="M1119.93,864.68l1.57,1.57a5.16,5.16,0,0,0,3.53,1.46,3.77,3.77,0,0,0,1.93-.43,3.84,3.84,0,0,0,1.61-1,5.07,5.07,0,0,0,1.46-3.54,5.21,5.21,0,0,0-1.46-3.53l-1.57-1.57a5.16,5.16,0,0,0-3.53-1.46,5.58,5.58,0,0,0-3.54,1.46,5.05,5.05,0,0,0-1.46,3.54,5.23,5.23,0,0,0,1.46,3.53Z"/><path class="cls-1" d="M863.76,1059.14l1.57-3.12a5.32,5.32,0,0,0,.5-3.85,5,5,0,0,0-6.15-3.5,5,5,0,0,0-3,2.3l-1.56,3.12a5.3,5.3,0,0,0-.51,3.86,5.09,5.09,0,0,0,2.3,3,5,5,0,0,0,6.84-1.79Z"/><path class="cls-1" d="M831.16,1082.81h-1.57a5.14,5.14,0,0,0-3.53,1.46,3.8,3.8,0,0,0-1,1.61,3.88,3.88,0,0,0-.43,1.93,5.07,5.07,0,0,0,1.47,3.53,5.19,5.19,0,0,0,3.53,1.47h1.57a5.13,5.13,0,0,0,3.53-1.47,3.8,3.8,0,0,0,1-1.61,3.84,3.84,0,0,0,.43-1.92,5.07,5.07,0,0,0-1.47-3.54,5.18,5.18,0,0,0-3.53-1.46Z"/><path class="cls-1" d="M1493.94,1325.72c6.43,0,6.44-10,0-10s-6.45,10,0,10Z"/><path class="cls-1" d="M1443.92,917.73c6.43,0,6.44-10,0-10s-6.45,10,0,10Z"/><path class="cls-1" d="M817.34,1311l1.53,6.26a5,5,0,0,0,9.64-2.66l-1.52-6.26a5,5,0,0,0-6.15-3.49,5.11,5.11,0,0,0-3.5,6.15Z"/><path class="cls-1" d="M1564.82,749.28c3.74-6,8.26-12.14,14.82-15.22,5.61-2.63,13.18-2.78,17.59,2.16,4.6,5.16,5.07,13.59,6.25,20,1.32,7.3,2.94,14.77,6.83,21.2a30.28,30.28,0,0,0,13.27,12.25c6.38,2.83,12.86,2.07,19.47.51,16.71-3.92,33.37-8.08,50-12.13,6.25-1.51,3.61-11.16-2.65-9.64-17.45,4.23-34.9,9.28-52.52,12.7-18.32,3.55-22.82-16.3-25.27-30.14-2.39-13.51-7.28-27.41-23.07-28.67-15-1.2-26.06,10.14-33.4,21.89-3.42,5.47,5.23,10.5,8.63,5Z"/><path class="cls-1" d="M2177.69,1049.09A545.43,545.43,0,0,1,2173,993l-9.31,2.52q11.4,25.19,25.18,49.16l6.85-6.84a359.75,359.75,0,0,0-45.47-24.18l-2.52,9.32a291.48,291.48,0,0,0,51.92-11.26l-3.85-9.14c-17.59,9.79-24.28,29.8-29.43,48-1.75,6.2,7.9,8.85,9.65,2.66,4.41-15.64,9.65-33.62,24.83-42.06,4.89-2.72,1.61-10.87-3.85-9.14a278.66,278.66,0,0,1-49.27,10.9c-4.23.53-7.66,7-2.53,9.32a357.2,357.2,0,0,1,45.47,24.18c4.31,2.71,9.27-2.61,6.84-6.84q-13.79-24-25.19-49.16c-2.08-4.6-9.47-2.21-9.32,2.52a568.68,568.68,0,0,0,5,58.73c.87,6.35,10.5,3.65,9.64-2.65Z"/><path class="cls-1" d="M1571.14,1173.88q26,40.29,54.35,78.94c3.77,5.13,12.45.15,8.63-5q-28.36-38.64-54.35-78.93c-3.48-5.39-12.14-.39-8.63,5Z"/><path class="cls-1" d="M1617,1150.1a633.33,633.33,0,0,0,50.38,70.54c4.09,5,11.13-2.14,7.07-7.08a615.84,615.84,0,0,1-48.82-68.51c-3.36-5.47-12-.46-8.63,5Z"/><path class="cls-1" d="M1642.25,1162.85a326.93,326.93,0,0,0-42.74,57.93c-3.24,5.58,5.4,10.62,8.63,5a314.86,314.86,0,0,1,41.18-55.91c4.36-4.72-2.69-11.81-7.07-7.07Z"/><path class="cls-1" d="M2163.54,708.69a161.07,161.07,0,0,0,59.21,12.89l-3.54-8.54a191.81,191.81,0,0,0-29.49,41.62c-3,5.69,5.64,10.76,8.63,5.05a182,182,0,0,1,27.93-39.6,5.06,5.06,0,0,0-3.53-8.53,148.1,148.1,0,0,1-54.16-11.53c-5.86-2.48-11,6.13-5.05,8.64Z"/><path class="cls-1" d="M1924.93,722.08c-.84,8.53-1.71,18.2-7.85,24.78-6.35,6.83-15.46,5-23.34,2.17a57.88,57.88,0,0,1-12-6c-3-1.92-5.58-4.51-8.85-5.88-7.95-3.34-14.29,2.52-19.6,7.74-5.66,5.55-11.21,12-18.89,14.69-8.15,2.9-17.1,1.92-25.37.13-14.44-3.12-32.74-7.38-41.92,8-3.31,5.54,5.34,10.58,8.63,5,4.88-8.17,15.69-6.78,23.57-5,8.28,1.82,16.51,3.91,25.06,3.65a40.7,40.7,0,0,0,23.52-8c6.28-4.7,11-11.84,17.49-16,4.22-2.73,7.88,2.09,11.32,4.31a66,66,0,0,0,10.16,5.34c7.72,3.29,16.75,6,25.16,4.06,17.66-4,21.45-23.71,23-39,.63-6.4-9.37-6.35-10,0Z"/><path class="cls-1" d="M1580.17,935.11c4.23-4.11,12.4-10.39,16.78-3,3.58,6.06-1.23,13.51-6.32,16.94-8.6,5.8-21.63,4.5-29-2.81-9.29-9.27-6.8-24.89.08-34.76,8-11.47,21.76-17.31,34.79-20.85,6.2-1.69,3.57-11.34-2.66-9.64-15,4.08-30,11-39.52,23.74-8.7,11.56-11.75,28-5.06,41.26,5.73,11.35,18.83,17.52,31.27,16.55,13.55-1.05,27.42-11.09,27.56-25.77.08-7.52-4.6-15.15-12-17.44-8.83-2.76-17,2.78-23.08,8.67-4.62,4.49,2.45,11.56,7.07,7.07Z"/><path class="cls-1" d="M2035.28,851.88c-.06,5.17-.66,14-7.57,14.25s-10-7.42-10-13.15c-.08-11.42,10.63-21.4,21.74-22,12.33-.72,21.74,10.35,24.81,21.29,4.12,14.66-1.83,30-9.05,42.6-3.2,5.59,5.44,10.64,8.63,5,8.26-14.45,14.33-31.44,10.59-48.23-2.94-13.2-12.44-25.58-25.69-29.53-13.09-3.9-27.17,2.3-35,13S2004.84,863,2016,872c6.22,5,15.54,5.79,21.86.54,6-5,7.34-13.21,7.43-20.61.07-6.44-9.93-6.44-10,0Z"/><path class="cls-1" d="M1784.44,963.73c-7.63-9.57-21.73-11.09-32.35-5.9-11.87,5.81-17.3,19.84-16.15,32.47,1.29,14.19,10.07,26,21.07,34.52,5.83,4.51,13.67,7.54,18.37,13.32s6,13.89,7.36,21c1.19,6.32,10.83,3.64,9.65-2.66-2.23-11.89-5.49-23.13-15.69-30.57s-20.73-12.65-27-24.18c-5.27-9.64-5.8-23.17,2.21-31.56,6.86-7.2,19.23-7.27,25.49.59,4,5,11-2.08,7.07-7.07Z"/><path class="cls-1" d="M1790.48,1086.19v1.35a3.72,3.72,0,0,0,.43,1.92,3.78,3.78,0,0,0,1,1.61,5.52,5.52,0,0,0,3.54,1.47l1.33-.18a5,5,0,0,0,2.2-1.29,5.19,5.19,0,0,0,1.47-3.53v-1.35a3.88,3.88,0,0,0-.43-1.93,4.5,4.5,0,0,0-2.65-2.64,3.72,3.72,0,0,0-1.92-.43l-1.33.18a4.94,4.94,0,0,0-2.21,1.28,5.19,5.19,0,0,0-1.46,3.54Z"/><path class="cls-1" d="M2174.71,1209.88a215.2,215.2,0,0,1-28.87,69.19c-3.48,5.43,5.17,10.45,8.64,5a223.22,223.22,0,0,0,29.87-71.57c1.41-6.27-8.23-9-9.64-2.66Z"/><path class="cls-1" d="M2115.46,1326.68l7.94-2.76c2.47-.86,4.37-3.47,3.5-6.15-.79-2.44-3.51-4.42-6.16-3.5l-7.94,2.77c-2.46.86-4.36,3.46-3.49,6.15.79,2.44,3.51,4.41,6.15,3.49Z"/><path class="cls-1" d="M1962.07,981a209.31,209.31,0,0,1-34.53,33.11c-2.7,2-3.76,6.83,0,8.63a114.49,114.49,0,0,1,37.4,28.58c4.22,4.88,11.27-2.22,7.07-7.07a121.42,121.42,0,0,0-39.43-30.14v8.63A219,219,0,0,0,1969.14,988c4.09-4.91-3-12-7.07-7.07Z"/><path class="cls-1" d="M1947.33,1219.11v-1.56a5.21,5.21,0,0,0-1.46-3.54,3.84,3.84,0,0,0-1.61-1,3.77,3.77,0,0,0-1.93-.43,5.1,5.1,0,0,0-3.54,1.46,5.23,5.23,0,0,0-1.46,3.54v1.56a5.21,5.21,0,0,0,1.46,3.54,3.84,3.84,0,0,0,1.61,1,3.77,3.77,0,0,0,1.93.43,5.1,5.1,0,0,0,3.54-1.46,5.23,5.23,0,0,0,1.46-3.54Z"/><path class="cls-1" d="M1903.66,1223.39l-1.56-1.56a5.17,5.17,0,0,0-3.54-1.47,5.53,5.53,0,0,0-3.53,1.47,5,5,0,0,0-1.47,3.53,5.22,5.22,0,0,0,1.47,3.54l1.56,1.56a5.15,5.15,0,0,0,3.54,1.47,3.84,3.84,0,0,0,1.92-.43,3.71,3.71,0,0,0,1.61-1,5,5,0,0,0,1.47-3.53,5.22,5.22,0,0,0-1.47-3.54Z"/><path class="cls-1" d="M1928.57,1255.06v-1.56a5.16,5.16,0,0,0-1.46-3.53,3.71,3.71,0,0,0-1.61-1,3.88,3.88,0,0,0-1.93-.43A5,5,0,0,0,1920,1250a5.17,5.17,0,0,0-1.47,3.53v1.56a5.15,5.15,0,0,0,1.47,3.54,3.69,3.69,0,0,0,1.61,1,3.62,3.62,0,0,0,1.92.43,5,5,0,0,0,3.54-1.46,5.19,5.19,0,0,0,1.46-3.54Z"/><path class="cls-1" d="M1954.84,1256.94c6.43,0,6.44-10,0-10s-6.45,10,0,10Z"/><path class="cls-1" d="M1884.49,1267.88h1.57a5.16,5.16,0,0,0,3.53-1.46,5.52,5.52,0,0,0,1.47-3.54,5.11,5.11,0,0,0-1.47-3.54,5.23,5.23,0,0,0-3.53-1.46h-1.57a5.16,5.16,0,0,0-3.53,1.46,5.52,5.52,0,0,0-1.47,3.54,5.11,5.11,0,0,0,1.47,3.54,5.23,5.23,0,0,0,3.53,1.46Z"/><path class="cls-1" d="M1726,1284.75c-.91-8.13,3.35-16.6,11.67-18.82,9.13-2.43,17,3.08,20.59,11.23,3.7,8.42,7.33,20.41,2.89,29.14-1.82,3.58-5.78,7.61-10.2,7.12-4-.44-7.42-4.34-6.19-8.3,1.92-6.16-7.73-8.8-9.64-2.66-4.52,14.53,12.73,25.26,25,18.73,15.36-8.16,14.22-27.37,9.61-41.53-2.39-7.36-5.63-14.59-12.11-19.23a27.25,27.25,0,0,0-19.32-4.76c-13.9,1.84-23.89,15.25-22.34,29.08.7,6.33,10.71,6.4,10,0Z"/><path class="cls-1" d="M2059.57,1117.82h1.56a5.17,5.17,0,0,0,3.54-1.47,3.78,3.78,0,0,0,1-1.61,3.72,3.72,0,0,0,.43-1.92,5.06,5.06,0,0,0-1.46-3.54,5.19,5.19,0,0,0-3.54-1.46h-1.56a5.16,5.16,0,0,0-3.54,1.46,3.69,3.69,0,0,0-1,1.61,3.77,3.77,0,0,0-.43,1.93,5.06,5.06,0,0,0,1.46,3.53,5.2,5.2,0,0,0,3.54,1.47Z"/><path class="cls-1" d="M2076.35,1141.36l1.57,1.57a5.16,5.16,0,0,0,3.53,1.46,3.77,3.77,0,0,0,1.93-.43,3.84,3.84,0,0,0,1.61-1,5.07,5.07,0,0,0,1.46-3.54,5.25,5.25,0,0,0-1.46-3.54l-1.57-1.56a5.12,5.12,0,0,0-3.53-1.46,3.68,3.68,0,0,0-1.93.43,3.75,3.75,0,0,0-1.61,1,5.05,5.05,0,0,0-1.46,3.54,5.23,5.23,0,0,0,1.46,3.53Z"/><path class="cls-1" d="M2042.78,714.62l.86-.86c4.56-4.56-2.51-11.63-7.07-7.07l-.86.86c-4.56,4.56,2.51,11.63,7.07,7.07l.86-.86c4.56-4.56-2.51-11.63-7.07-7.07l-.86.86c-4.56,4.56,2.51,11.63,7.07,7.07Z"/><path class="cls-1" d="M2012.67,730.15c6.44,0,6.45-10,0-10s-6.44,10,0,10Z"/><path class="cls-1" d="M1832.5,844.36l1.56,1.57a5.21,5.21,0,0,0,3.54,1.46,3.72,3.72,0,0,0,1.92-.43,3.78,3.78,0,0,0,1.61-1,5,5,0,0,0,1.47-3.54,5.22,5.22,0,0,0-1.47-3.54l-1.56-1.56a5.14,5.14,0,0,0-3.53-1.46,5.58,5.58,0,0,0-3.54,1.46,5,5,0,0,0-1.46,3.54,5.14,5.14,0,0,0,1.46,3.53Z"/><path class="cls-1" d="M1856,864.68l1.56,1.57a5.19,5.19,0,0,0,3.54,1.46,3.74,3.74,0,0,0,1.92-.43,3.78,3.78,0,0,0,1.61-1,5,5,0,0,0,1.47-3.54,5.17,5.17,0,0,0-1.47-3.53l-1.56-1.57a5.21,5.21,0,0,0-3.54-1.46,5.59,5.59,0,0,0-3.53,1.46,5,5,0,0,0-1.47,3.54,5.19,5.19,0,0,0,1.47,3.53Z"/><path class="cls-1" d="M1599.77,1059.14l1.57-3.12a5.33,5.33,0,0,0,.51-3.85,5.11,5.11,0,0,0-2.3-3,5,5,0,0,0-3.85-.51,5,5,0,0,0-3,2.3l-1.57,3.12a5.29,5.29,0,0,0-.5,3.86,5.07,5.07,0,0,0,2.29,3,5,5,0,0,0,6.84-1.79Z"/><path class="cls-1" d="M1567.17,1082.81h-1.56a5.16,5.16,0,0,0-3.54,1.46,5.58,5.58,0,0,0-1.46,3.54,5.06,5.06,0,0,0,1.46,3.53,5.2,5.2,0,0,0,3.54,1.47h1.56a5.17,5.17,0,0,0,3.54-1.47,3.78,3.78,0,0,0,1-1.61,3.74,3.74,0,0,0,.43-1.92,5.06,5.06,0,0,0-1.46-3.54,5.19,5.19,0,0,0-3.54-1.46Z"/><path class="cls-1" d="M2230,1325.72c6.44,0,6.45-10,0-10s-6.44,10,0,10Z"/><path class="cls-1" d="M2179.93,917.73c6.44,0,6.45-10,0-10s-6.44,10,0,10Z"/><path class="cls-1" d="M1553.36,1311l1.53,6.26a5,5,0,0,0,6.15,3.49,5.1,5.1,0,0,0,3.49-6.15l-1.53-6.26a5,5,0,0,0-6.15-3.49,5.11,5.11,0,0,0-3.49,6.15Z"/><path class="cls-1" d="M62,1448.78c3.73-6,8.25-12.14,14.81-15.22,5.61-2.63,13.18-2.78,17.59,2.16,4.6,5.16,5.08,13.58,6.25,20,1.32,7.3,2.94,14.77,6.83,21.2a30.33,30.33,0,0,0,13.27,12.25c6.39,2.83,12.86,2.07,19.47.51,16.71-3.92,33.37-8.08,50-12.13,6.26-1.51,3.61-11.16-2.65-9.64-17.45,4.23-34.9,9.28-52.52,12.7-18.32,3.55-22.82-16.31-25.27-30.14-2.39-13.51-7.28-27.41-23.07-28.67-15-1.2-26.06,10.14-33.4,21.89-3.42,5.47,5.23,10.5,8.64,5Z"/><path class="cls-1" d="M674.85,1748.58a545,545,0,0,1-4.66-56.07l-9.32,2.52q11.4,25.18,25.19,49.16l6.84-6.84a359.75,359.75,0,0,0-45.47-24.18l-2.52,9.32a293.55,293.55,0,0,0,51.93-11.26l-3.86-9.14c-17.59,9.79-24.28,29.8-29.43,48-1.75,6.2,7.9,8.85,9.65,2.66,4.41-15.64,9.66-33.62,24.83-42.06,4.89-2.73,1.61-10.87-3.85-9.14a278.66,278.66,0,0,1-49.27,10.9c-4.23.53-7.66,7-2.53,9.31A358.53,358.53,0,0,1,687.85,1746c4.32,2.71,9.27-2.61,6.84-6.84q-13.77-24-25.19-49.16c-2.08-4.6-9.47-2.21-9.31,2.52a565.9,565.9,0,0,0,5,58.73c.87,6.35,10.5,3.65,9.64-2.66Z"/><path class="cls-1" d="M68.3,1873.38q26,40.29,54.35,78.94c3.77,5.13,12.45.15,8.64-5q-28.38-38.64-54.36-78.93c-3.47-5.4-12.13-.39-8.63,5Z"/><path class="cls-1" d="M114.13,1849.59a633.7,633.7,0,0,0,50.38,70.54c4.09,5,11.13-2.13,7.07-7.07a615.84,615.84,0,0,1-48.82-68.51c-3.36-5.48-12-.46-8.63,5Z"/><path class="cls-1" d="M139.41,1862.35a326.93,326.93,0,0,0-42.74,57.93c-3.24,5.58,5.4,10.62,8.63,5a314.86,314.86,0,0,1,41.18-55.91c4.36-4.72-2.69-11.81-7.07-7.07Z"/><path class="cls-1" d="M660.7,1408.18a160.93,160.93,0,0,0,59.21,12.9l-3.54-8.54a191.81,191.81,0,0,0-29.49,41.62c-3,5.69,5.64,10.75,8.63,5a182.19,182.19,0,0,1,27.93-39.59,5.06,5.06,0,0,0-3.53-8.53,148.1,148.1,0,0,1-54.16-11.53c-5.86-2.48-11,6.13-5,8.63Z"/><path class="cls-1" d="M422.09,1421.58c-.84,8.53-1.71,18.2-7.84,24.78-6.36,6.82-15.47,5-23.34,2.17a57.71,57.71,0,0,1-12.05-6c-2.95-1.92-5.58-4.51-8.85-5.88-7.95-3.34-14.29,2.51-19.6,7.73-5.66,5.56-11.21,12-18.89,14.7-8.15,2.9-17.1,1.91-25.37.13-14.44-3.12-32.74-7.38-41.92,8-3.31,5.54,5.34,10.58,8.63,5,4.88-8.17,15.69-6.78,23.57-5,8.28,1.81,16.51,3.91,25.06,3.65a40.64,40.64,0,0,0,23.52-8c6.28-4.69,11-11.83,17.49-16,4.22-2.73,7.88,2.09,11.32,4.31a66.12,66.12,0,0,0,10.17,5.34c7.71,3.28,16.74,6,25.15,4.06,17.67-4,21.45-23.71,22.95-39,.64-6.4-9.37-6.35-10,0Z"/><path class="cls-1" d="M77.33,1634.61c4.23-4.11,12.4-10.39,16.78-3,3.58,6.07-1.23,13.52-6.32,16.95-8.6,5.8-21.63,4.5-29-2.81-9.29-9.27-6.8-24.89.08-34.76,8-11.47,21.76-17.31,34.79-20.85,6.21-1.69,3.57-11.34-2.66-9.64-15,4.08-29.95,11-39.52,23.74-8.7,11.56-11.75,28-5.06,41.26,5.73,11.35,18.83,17.52,31.27,16.55,13.55-1,27.42-11.09,27.56-25.77.08-7.52-4.59-15.15-12-17.45-8.83-2.75-17,2.79-23.08,8.68-4.62,4.49,2.45,11.56,7.07,7.07Z"/><path class="cls-1" d="M532.44,1551.38c-.06,5.17-.65,14-7.56,14.25s-10-7.42-10.06-13.15c-.07-11.42,10.63-21.4,21.74-22,12.33-.72,21.74,10.36,24.81,21.3,4.12,14.66-1.83,30-9,42.59-3.2,5.6,5.44,10.64,8.63,5,8.26-14.45,14.33-31.44,10.59-48.23-2.93-13.2-12.44-25.58-25.69-29.53-13.09-3.9-27.16,2.3-35,13s-8.84,27.89,2.31,36.81c6.22,5,15.54,5.78,21.86.54,6-5,7.35-13.21,7.43-20.61.08-6.44-9.92-6.44-10,0Z"/><path class="cls-1" d="M281.6,1663.23c-7.63-9.58-21.73-11.09-32.35-5.9-11.87,5.8-17.3,19.84-16.15,32.47,1.29,14.18,10.07,26,21.07,34.52,5.83,4.51,13.67,7.54,18.37,13.31s6,13.9,7.36,21c1.19,6.32,10.83,3.64,9.65-2.66-2.23-11.89-5.48-23.13-15.69-30.57s-20.73-12.65-27-24.18c-5.27-9.64-5.8-23.17,2.21-31.56,6.86-7.2,19.23-7.27,25.49.59,4,5,11.05-2.09,7.07-7.07Z"/><path class="cls-1" d="M287.64,1785.69V1787a3.74,3.74,0,0,0,.43,1.92,3.78,3.78,0,0,0,1,1.61,5.52,5.52,0,0,0,3.54,1.47l1.33-.18a5.05,5.05,0,0,0,2.21-1.29,5.23,5.23,0,0,0,1.46-3.53v-1.35a5.13,5.13,0,0,0-5-5l-1.33.18a4.94,4.94,0,0,0-2.21,1.28,5.23,5.23,0,0,0-1.46,3.54Z"/><path class="cls-1" d="M671.87,1909.38A215.2,215.2,0,0,1,643,1978.57c-3.48,5.43,5.17,10.45,8.64,5A223.22,223.22,0,0,0,681.51,1912c1.41-6.27-8.23-9-9.64-2.66Z"/><path class="cls-1" d="M612.62,2026.18l7.94-2.76c2.47-.86,4.37-3.47,3.5-6.15-.79-2.44-3.51-4.42-6.15-3.5l-7.95,2.77c-2.46.85-4.36,3.46-3.49,6.15.79,2.44,3.51,4.41,6.15,3.49Z"/><path class="cls-1" d="M459.23,1680.47a208.84,208.84,0,0,1-34.53,33.1c-2.7,2-3.75,6.84,0,8.64a114.35,114.35,0,0,1,37.4,28.58c4.22,4.87,11.27-2.22,7.07-7.07a121.48,121.48,0,0,0-39.43-30.15v8.64a219,219,0,0,0,36.56-34.67c4.09-4.91-2.95-12-7.07-7.07Z"/><path class="cls-1" d="M444.49,1918.61v-1.56a5.21,5.21,0,0,0-1.46-3.54,5.58,5.58,0,0,0-3.54-1.46,5.06,5.06,0,0,0-3.53,1.46,5.2,5.2,0,0,0-1.47,3.54v1.56a5.17,5.17,0,0,0,1.47,3.54,5.53,5.53,0,0,0,3.53,1.46,5.08,5.08,0,0,0,3.54-1.46,5.23,5.23,0,0,0,1.46-3.54Z"/><path class="cls-1" d="M400.82,1922.89l-1.56-1.56a5.17,5.17,0,0,0-3.54-1.47,5.53,5.53,0,0,0-3.53,1.47,5,5,0,0,0-1.47,3.53,5.22,5.22,0,0,0,1.47,3.54l1.56,1.56a5.15,5.15,0,0,0,3.54,1.47,3.84,3.84,0,0,0,1.92-.43,3.8,3.8,0,0,0,1.61-1,5,5,0,0,0,1.47-3.53,5.22,5.22,0,0,0-1.47-3.54Z"/><path class="cls-1" d="M425.73,1954.56V1953a5.16,5.16,0,0,0-1.46-3.54,5.58,5.58,0,0,0-3.54-1.46,5.06,5.06,0,0,0-3.53,1.46,5.22,5.22,0,0,0-1.47,3.54v1.56a5.15,5.15,0,0,0,1.47,3.54,3.69,3.69,0,0,0,1.61,1,3.64,3.64,0,0,0,1.92.43,5,5,0,0,0,3.54-1.46,5.19,5.19,0,0,0,1.46-3.54Z"/><path class="cls-1" d="M452,1956.44c6.43,0,6.44-10,0-10s-6.45,10,0,10Z"/><path class="cls-1" d="M381.65,1967.38h1.57a5.13,5.13,0,0,0,3.53-1.47,3.68,3.68,0,0,0,1-1.6,3.88,3.88,0,0,0,.43-1.93,5.09,5.09,0,0,0-1.47-3.54,5.23,5.23,0,0,0-3.53-1.46h-1.57a5.18,5.18,0,0,0-3.53,1.46,5.67,5.67,0,0,0-1.47,3.54,5.07,5.07,0,0,0,1.47,3.53,5.19,5.19,0,0,0,3.53,1.47Z"/><path class="cls-1" d="M223.15,1984.25c-.91-8.13,3.35-16.6,11.67-18.82,9.13-2.43,17,3.08,20.59,11.23,3.7,8.42,7.33,20.41,2.89,29.14-1.82,3.57-5.78,7.61-10.2,7.12-4-.44-7.42-4.34-6.18-8.3,1.91-6.16-7.74-8.8-9.65-2.66-4.51,14.53,12.73,25.26,25,18.73,15.36-8.16,14.23-27.37,9.61-41.53-2.39-7.36-5.63-14.59-12.11-19.23a27.24,27.24,0,0,0-19.32-4.76c-13.9,1.84-23.88,15.25-22.34,29.08.7,6.33,10.71,6.4,10,0Z"/><path class="cls-1" d="M556.73,1817.32h1.56a5.17,5.17,0,0,0,3.54-1.47,3.78,3.78,0,0,0,1-1.61,3.74,3.74,0,0,0,.43-1.92,5.06,5.06,0,0,0-1.46-3.54,5.19,5.19,0,0,0-3.54-1.46h-1.56a5.16,5.16,0,0,0-3.54,1.46,5.58,5.58,0,0,0-1.46,3.54,5.06,5.06,0,0,0,1.46,3.53,5.2,5.2,0,0,0,3.54,1.47Z"/><path class="cls-1" d="M573.51,1840.86l1.57,1.56a5.13,5.13,0,0,0,3.53,1.47,3.77,3.77,0,0,0,1.93-.43,3.71,3.71,0,0,0,1.61-1,5,5,0,0,0,1.46-3.53,5.21,5.21,0,0,0-1.46-3.54l-1.56-1.56a5.16,5.16,0,0,0-3.54-1.46,3.68,3.68,0,0,0-1.93.43,3.75,3.75,0,0,0-1.61,1,5,5,0,0,0-1.46,3.54,5.25,5.25,0,0,0,1.46,3.53Z"/><path class="cls-1" d="M539.94,1414.12l.86-.86c4.56-4.56-2.51-11.63-7.07-7.07l-.86.86c-4.55,4.55,2.51,11.63,7.07,7.07l.86-.86c4.56-4.56-2.51-11.63-7.07-7.07l-.86.86c-4.55,4.55,2.51,11.63,7.07,7.07Z"/><path class="cls-1" d="M509.83,1429.65c6.44,0,6.45-10,0-10s-6.44,10,0,10Z"/><path class="cls-1" d="M329.66,1543.86l1.56,1.56a5.17,5.17,0,0,0,3.54,1.47,3.88,3.88,0,0,0,1.93-.43,3.77,3.77,0,0,0,1.61-1,5,5,0,0,0,1.46-3.53,5.25,5.25,0,0,0-1.46-3.54l-1.57-1.56a5.12,5.12,0,0,0-3.53-1.46,5.58,5.58,0,0,0-3.54,1.46,5,5,0,0,0-1.46,3.54,5.2,5.2,0,0,0,1.46,3.53Z"/><path class="cls-1" d="M353.11,1564.18l1.56,1.57a5.19,5.19,0,0,0,3.54,1.46,3.72,3.72,0,0,0,1.92-.43,3.78,3.78,0,0,0,1.61-1,5,5,0,0,0,1.47-3.54,5.22,5.22,0,0,0-1.47-3.54l-1.56-1.56a5.14,5.14,0,0,0-3.54-1.46,3.64,3.64,0,0,0-1.92.43,3.69,3.69,0,0,0-1.61,1,5,5,0,0,0-1.47,3.54,5.19,5.19,0,0,0,1.47,3.53Z"/><path class="cls-1" d="M96.94,1758.64l1.56-3.12a5.3,5.3,0,0,0,.51-3.86,5,5,0,0,0-6.15-3.49,5,5,0,0,0-3,2.3l-1.57,3.12a5.34,5.34,0,0,0-.5,3.86,5,5,0,0,0,9.14,1.19Z"/><path class="cls-1" d="M64.33,1782.31H62.77a5.16,5.16,0,0,0-3.54,1.46,5.58,5.58,0,0,0-1.46,3.54,5.06,5.06,0,0,0,1.46,3.53,5.2,5.2,0,0,0,3.54,1.47h1.56a5.17,5.17,0,0,0,3.54-1.47,3.69,3.69,0,0,0,1-1.61,3.64,3.64,0,0,0,.43-1.92,5.06,5.06,0,0,0-1.46-3.54,5.19,5.19,0,0,0-3.54-1.46Z"/><path class="cls-1" d="M727.11,2025.22c6.44,0,6.45-10,0-10s-6.44,10,0,10Z"/><path class="cls-1" d="M677.09,1617.23c6.44,0,6.45-10,0-10s-6.44,10,0,10Z"/><path class="cls-1" d="M50.52,2010.51l1.53,6.26a5,5,0,0,0,6.15,3.49,5.1,5.1,0,0,0,3.49-6.15l-1.53-6.26a5,5,0,0,0-6.15-3.49,5.1,5.1,0,0,0-3.49,6.15Z"/><path class="cls-1" d="M828.81,1448.78c3.73-6,8.26-12.14,14.82-15.22,5.61-2.63,13.18-2.78,17.59,2.16,4.6,5.16,5.07,13.58,6.24,20,1.33,7.3,2.95,14.77,6.84,21.2a30.28,30.28,0,0,0,13.27,12.25c6.38,2.83,12.85,2.07,19.47.51,16.71-3.92,33.37-8.08,50.05-12.13,6.25-1.51,3.6-11.16-2.66-9.64-17.44,4.23-34.89,9.28-52.51,12.7-18.32,3.55-22.82-16.31-25.27-30.14-2.39-13.51-7.28-27.41-23.08-28.67-15-1.2-26.05,10.14-33.39,21.89-3.42,5.47,5.22,10.5,8.63,5Z"/><path class="cls-1" d="M1441.68,1748.58a542.22,542.22,0,0,1-4.67-56.07l-9.32,2.52q11.41,25.18,25.19,49.16l6.84-6.84a360.31,360.31,0,0,0-45.46-24.18l-2.53,9.32a293.36,293.36,0,0,0,51.93-11.26l-3.85-9.14c-17.6,9.79-24.28,29.8-29.43,48-1.75,6.2,7.89,8.85,9.64,2.66,4.41-15.64,9.66-33.62,24.83-42.06,4.9-2.73,1.61-10.87-3.85-9.14a278.66,278.66,0,0,1-49.27,10.9c-4.23.53-7.65,7-2.52,9.31a358.41,358.41,0,0,1,45.46,24.19c4.32,2.71,9.28-2.61,6.84-6.84q-13.77-24-25.18-49.16c-2.09-4.6-9.47-2.21-9.32,2.52a571.46,571.46,0,0,0,5,58.73c.87,6.35,10.51,3.65,9.65-2.66Z"/><path class="cls-1" d="M835.12,1873.38q26,40.29,54.36,78.94c3.76,5.13,12.45.15,8.63-5q-28.36-38.64-54.35-78.93c-3.48-5.4-12.14-.39-8.64,5Z"/><path class="cls-1" d="M881,1849.59a635,635,0,0,0,50.38,70.54c4.09,5,11.13-2.13,7.08-7.07a614.54,614.54,0,0,1-48.82-68.51c-3.37-5.48-12-.46-8.64,5Z"/><path class="cls-1" d="M906.24,1862.35a327,327,0,0,0-42.75,57.93c-3.23,5.58,5.41,10.62,8.64,5a314.37,314.37,0,0,1,41.18-55.91c4.36-4.72-2.7-11.81-7.07-7.07Z"/><path class="cls-1" d="M1427.53,1408.18a160.87,160.87,0,0,0,59.2,12.9l-3.53-8.54a191.85,191.85,0,0,0-29.5,41.62c-3,5.69,5.65,10.75,8.64,5a181.85,181.85,0,0,1,27.93-39.59,5.06,5.06,0,0,0-3.54-8.53,148,148,0,0,1-54.15-11.53c-5.86-2.48-11,6.13-5,8.63Z"/><path class="cls-1" d="M1188.92,1421.58c-.84,8.53-1.71,18.2-7.85,24.78-6.36,6.82-15.46,5-23.34,2.17a57.63,57.63,0,0,1-12-6c-3-1.92-5.59-4.51-8.86-5.88-7.95-3.34-14.28,2.51-19.6,7.73-5.65,5.56-11.21,12-18.88,14.7-8.15,2.9-17.1,1.91-25.37.13-14.44-3.12-32.75-7.38-41.93,8-3.3,5.54,5.34,10.58,8.64,5,4.87-8.17,15.68-6.78,23.57-5,8.28,1.81,16.5,3.91,25.06,3.65a40.64,40.64,0,0,0,23.52-8c6.27-4.69,11-11.83,17.48-16,4.22-2.73,7.88,2.09,11.32,4.31a66.12,66.12,0,0,0,10.17,5.34c7.72,3.28,16.74,6,25.16,4.06,17.66-4,21.44-23.71,23-39,.63-6.4-9.37-6.35-10,0Z"/><path class="cls-1" d="M844.15,1634.61c4.23-4.11,12.4-10.39,16.79-3,3.58,6.07-1.23,13.52-6.32,16.95-8.6,5.8-21.63,4.5-29-2.81-9.29-9.27-6.81-24.89.07-34.76,8-11.47,21.77-17.31,34.8-20.85,6.2-1.69,3.57-11.34-2.66-9.64-15,4.08-30,11-39.53,23.74-8.7,11.56-11.74,28-5.06,41.26,5.73,11.35,18.84,17.52,31.27,16.55,13.55-1,27.42-11.09,27.57-25.77.07-7.52-4.6-15.15-12-17.45-8.82-2.75-17,2.79-23.08,8.68-4.62,4.49,2.46,11.56,7.07,7.07Z"/><path class="cls-1" d="M1299.27,1551.38c-.06,5.17-.66,14-7.57,14.25s-10-7.42-10-13.15c-.08-11.42,10.63-21.4,21.73-22,12.34-.72,21.74,10.36,24.82,21.3,4.11,14.66-1.84,30-9.06,42.59-3.2,5.6,5.44,10.64,8.64,5,8.26-14.45,14.32-31.44,10.59-48.23-2.94-13.2-12.44-25.58-25.7-29.53-13.08-3.9-27.16,2.3-35,13s-8.84,27.89,2.3,36.81c6.23,5,15.54,5.78,21.86.54,6-5,7.35-13.21,7.44-20.61.07-6.44-9.93-6.44-10,0Z"/><path class="cls-1" d="M1048.43,1663.23c-7.63-9.58-21.74-11.09-32.35-5.9-11.88,5.8-17.3,19.84-16.15,32.47,1.29,14.18,10.06,26,21.06,34.52,5.84,4.51,13.67,7.54,18.38,13.31s6,13.9,7.36,21c1.18,6.32,10.82,3.64,9.64-2.66-2.23-11.89-5.48-23.13-15.69-30.57s-20.73-12.65-27-24.18c-5.26-9.64-5.79-23.17,2.21-31.56,6.86-7.2,19.23-7.27,25.5.59,4,5,11-2.09,7.07-7.07Z"/><path class="cls-1" d="M1054.46,1785.69V1787a3.84,3.84,0,0,0,.43,1.92,4.56,4.56,0,0,0,2.65,2.65,3.84,3.84,0,0,0,1.92.43l1.33-.18a5,5,0,0,0,2.21-1.29,5.18,5.18,0,0,0,1.46-3.53v-1.35a4.8,4.8,0,0,0-3.07-4.57,3.77,3.77,0,0,0-1.93-.43l-1.33.18a4.91,4.91,0,0,0-2.2,1.28,5.2,5.2,0,0,0-1.47,3.54Z"/><path class="cls-1" d="M1438.69,1909.38a215.18,215.18,0,0,1-28.86,69.19c-3.49,5.43,5.17,10.45,8.63,5a223.25,223.25,0,0,0,29.88-71.57c1.4-6.27-8.24-9-9.65-2.66Z"/><path class="cls-1" d="M1379.45,2026.18l7.94-2.76c2.46-.86,4.36-3.47,3.49-6.15-.79-2.44-3.51-4.42-6.15-3.5l-7.94,2.77c-2.47.85-4.36,3.46-3.49,6.15.78,2.44,3.5,4.41,6.15,3.49Z"/><path class="cls-1" d="M1226.05,1680.47a208.84,208.84,0,0,1-34.53,33.1c-2.69,2-3.75,6.84,0,8.64a114.39,114.39,0,0,1,37.41,28.58c4.21,4.87,11.26-2.22,7.07-7.07a121.59,121.59,0,0,0-39.43-30.15v8.64a219.36,219.36,0,0,0,36.55-34.67c4.1-4.91-2.94-12-7.07-7.07Z"/><path class="cls-1" d="M1211.32,1918.61v-1.56a5.17,5.17,0,0,0-1.47-3.54,3.69,3.69,0,0,0-1.61-1,3.74,3.74,0,0,0-1.92-.43,5.06,5.06,0,0,0-3.54,1.46,5.19,5.19,0,0,0-1.46,3.54v1.56a5.16,5.16,0,0,0,1.46,3.54,5.58,5.58,0,0,0,3.54,1.46,5.06,5.06,0,0,0,3.53-1.46,5.2,5.2,0,0,0,1.47-3.54Z"/><path class="cls-1" d="M1167.65,1922.89l-1.57-1.56a5.13,5.13,0,0,0-3.53-1.47,3.88,3.88,0,0,0-1.93.43,3.8,3.8,0,0,0-1.61,1,5,5,0,0,0-1.46,3.53,5.21,5.21,0,0,0,1.46,3.54l1.56,1.56a5.17,5.17,0,0,0,3.54,1.47,5.52,5.52,0,0,0,3.54-1.47,5,5,0,0,0,1.46-3.53,5.25,5.25,0,0,0-1.46-3.54Z"/><path class="cls-1" d="M1192.56,1954.56V1953a5.17,5.17,0,0,0-1.47-3.54,3.78,3.78,0,0,0-1.61-1,3.72,3.72,0,0,0-1.92-.43,5.06,5.06,0,0,0-3.54,1.46,5.21,5.21,0,0,0-1.46,3.54v1.56a5.19,5.19,0,0,0,1.46,3.54,3.75,3.75,0,0,0,1.61,1,3.68,3.68,0,0,0,1.93.43,5,5,0,0,0,3.53-1.46,5.2,5.2,0,0,0,1.47-3.54Z"/><path class="cls-1" d="M1218.82,1956.44c6.44,0,6.45-10,0-10s-6.44,10,0,10Z"/><path class="cls-1" d="M1148.48,1967.38H1150a5.17,5.17,0,0,0,3.54-1.47,3.66,3.66,0,0,0,1-1.6,3.77,3.77,0,0,0,.43-1.93,5.08,5.08,0,0,0-1.46-3.54,5.23,5.23,0,0,0-3.54-1.46h-1.56a5.21,5.21,0,0,0-3.54,1.46,3.84,3.84,0,0,0-1,1.61,3.77,3.77,0,0,0-.43,1.93,5.06,5.06,0,0,0,1.46,3.53,5.2,5.2,0,0,0,3.54,1.47Z"/><path class="cls-1" d="M990,1984.25c-.9-8.13,3.36-16.6,11.68-18.82,9.12-2.43,17,3.08,20.58,11.23,3.7,8.42,7.34,20.41,2.89,29.14-1.82,3.57-5.78,7.61-10.19,7.12-4-.44-7.42-4.34-6.19-8.3,1.91-6.16-7.74-8.8-9.64-2.66-4.52,14.53,12.72,25.26,25,18.73,15.37-8.16,14.23-27.37,9.62-41.53-2.4-7.36-5.64-14.59-12.11-19.23a27.28,27.28,0,0,0-19.33-4.76c-13.89,1.84-23.88,15.25-22.34,29.08.71,6.33,10.72,6.4,10,0Z"/><path class="cls-1" d="M1323.55,1817.32h1.57a5.15,5.15,0,0,0,3.53-1.47,3.8,3.8,0,0,0,1-1.61,3.84,3.84,0,0,0,.43-1.92,5.07,5.07,0,0,0-1.47-3.54,5.18,5.18,0,0,0-3.53-1.46h-1.57a5.12,5.12,0,0,0-3.53,1.46,3.8,3.8,0,0,0-1,1.61,3.88,3.88,0,0,0-.43,1.93,5.07,5.07,0,0,0,1.47,3.53,5.19,5.19,0,0,0,3.53,1.47Z"/><path class="cls-1" d="M1340.34,1840.86l1.56,1.56a5.17,5.17,0,0,0,3.54,1.47,5.53,5.53,0,0,0,3.53-1.47,5,5,0,0,0,1.47-3.53,5.22,5.22,0,0,0-1.47-3.54l-1.56-1.56a5.14,5.14,0,0,0-3.54-1.46,3.64,3.64,0,0,0-1.92.43,3.69,3.69,0,0,0-1.61,1,5,5,0,0,0-1.47,3.54,5.21,5.21,0,0,0,1.47,3.53Z"/><path class="cls-1" d="M1306.77,1414.12l.86-.86c4.55-4.56-2.52-11.63-7.07-7.07l-.86.86c-4.56,4.55,2.51,11.63,7.07,7.07l.86-.86c4.55-4.56-2.52-11.63-7.07-7.07l-.86.86c-4.56,4.55,2.51,11.63,7.07,7.07Z"/><path class="cls-1" d="M1276.66,1429.65c6.43,0,6.44-10,0-10s-6.45,10,0,10Z"/><path class="cls-1" d="M1096.49,1543.86l1.56,1.56a5.15,5.15,0,0,0,3.53,1.47,3.88,3.88,0,0,0,1.93-.43,3.71,3.71,0,0,0,1.61-1,5,5,0,0,0,1.46-3.53,5.21,5.21,0,0,0-1.46-3.54l-1.56-1.56a5.16,5.16,0,0,0-3.54-1.46,5.53,5.53,0,0,0-3.53,1.46,5,5,0,0,0-1.47,3.54,5.21,5.21,0,0,0,1.47,3.53Z"/><path class="cls-1" d="M1119.93,1564.18l1.57,1.57a5.16,5.16,0,0,0,3.53,1.46,3.77,3.77,0,0,0,1.93-.43,3.84,3.84,0,0,0,1.61-1,5.07,5.07,0,0,0,1.46-3.54,5.25,5.25,0,0,0-1.46-3.54l-1.57-1.56a5.12,5.12,0,0,0-3.53-1.46,3.68,3.68,0,0,0-1.93.43,3.75,3.75,0,0,0-1.61,1,5.05,5.05,0,0,0-1.46,3.54,5.23,5.23,0,0,0,1.46,3.53Z"/><path class="cls-1" d="M863.76,1758.64l1.57-3.12a5.34,5.34,0,0,0,.5-3.86,5,5,0,0,0-9.14-1.19l-1.56,3.12a5.3,5.3,0,0,0-.51,3.86,5,5,0,0,0,6.15,3.49,5,5,0,0,0,3-2.3Z"/><path class="cls-1" d="M831.16,1782.31h-1.57a5.14,5.14,0,0,0-3.53,1.46,3.8,3.8,0,0,0-1,1.61,3.85,3.85,0,0,0-.43,1.93,5.07,5.07,0,0,0,1.47,3.53,5.19,5.19,0,0,0,3.53,1.47h1.57a5.13,5.13,0,0,0,3.53-1.47,3.8,3.8,0,0,0,1-1.61,3.84,3.84,0,0,0,.43-1.92,5.07,5.07,0,0,0-1.47-3.54,5.18,5.18,0,0,0-3.53-1.46Z"/><path class="cls-1" d="M1493.94,2025.22c6.43,0,6.44-10,0-10s-6.45,10,0,10Z"/><path class="cls-1" d="M1443.92,1617.23c6.43,0,6.44-10,0-10s-6.45,10,0,10Z"/><path class="cls-1" d="M817.34,2010.51l1.53,6.26a5,5,0,0,0,9.64-2.66l-1.52-6.26a5,5,0,0,0-6.15-3.49,5.11,5.11,0,0,0-3.5,6.15Z"/><path class="cls-1" d="M1564.82,1448.78c3.74-6,8.26-12.14,14.82-15.22,5.61-2.63,13.18-2.78,17.59,2.16,4.6,5.16,5.07,13.58,6.25,20,1.32,7.3,2.94,14.77,6.83,21.2a30.33,30.33,0,0,0,13.27,12.25c6.38,2.83,12.86,2.07,19.47.51,16.71-3.92,33.37-8.08,50-12.13,6.25-1.51,3.61-11.16-2.65-9.64-17.45,4.23-34.9,9.28-52.52,12.7-18.32,3.55-22.82-16.31-25.27-30.14-2.39-13.51-7.28-27.41-23.07-28.67-15-1.2-26.06,10.14-33.4,21.89-3.42,5.47,5.23,10.5,8.63,5Z"/><path class="cls-1" d="M2177.69,1748.58a545,545,0,0,1-4.67-56.07l-9.31,2.52q11.4,25.18,25.18,49.16l6.85-6.84a359.75,359.75,0,0,0-45.47-24.18l-2.52,9.32a293.25,293.25,0,0,0,51.92-11.26l-3.85-9.14c-17.59,9.79-24.28,29.8-29.43,48-1.75,6.2,7.9,8.85,9.65,2.66,4.41-15.64,9.65-33.62,24.83-42.06,4.89-2.73,1.61-10.87-3.85-9.14a278.66,278.66,0,0,1-49.27,10.9c-4.23.53-7.66,7-2.53,9.31a358.53,358.53,0,0,1,45.47,24.19c4.31,2.71,9.27-2.61,6.84-6.84q-13.79-24-25.19-49.16c-2.08-4.6-9.47-2.21-9.32,2.52a568.68,568.68,0,0,0,5,58.73c.87,6.35,10.5,3.65,9.64-2.66Z"/><path class="cls-1" d="M1571.14,1873.38q26,40.29,54.35,78.94c3.77,5.13,12.45.15,8.63-5q-28.36-38.64-54.35-78.93c-3.48-5.4-12.14-.39-8.63,5Z"/><path class="cls-1" d="M1617,1849.59a632.41,632.41,0,0,0,50.38,70.54c4.09,5,11.13-2.13,7.07-7.07a615.84,615.84,0,0,1-48.82-68.51c-3.36-5.48-12-.46-8.63,5Z"/><path class="cls-1" d="M1642.25,1862.35a326.93,326.93,0,0,0-42.74,57.93c-3.24,5.58,5.4,10.62,8.63,5a314.86,314.86,0,0,1,41.18-55.91c4.36-4.72-2.69-11.81-7.07-7.07Z"/><path class="cls-1" d="M2163.54,1408.18a160.88,160.88,0,0,0,59.21,12.9l-3.54-8.54a191.81,191.81,0,0,0-29.49,41.62c-3,5.69,5.64,10.75,8.63,5a182.19,182.19,0,0,1,27.93-39.59,5.06,5.06,0,0,0-3.53-8.53,148.1,148.1,0,0,1-54.16-11.53c-5.86-2.48-11,6.13-5.05,8.63Z"/><path class="cls-1" d="M1924.93,1421.58c-.84,8.53-1.71,18.2-7.85,24.78-6.35,6.82-15.46,5-23.34,2.17a57.88,57.88,0,0,1-12-6c-3-1.92-5.58-4.51-8.85-5.88-7.95-3.34-14.29,2.51-19.6,7.73-5.66,5.56-11.21,12-18.89,14.7-8.15,2.9-17.1,1.91-25.37.13-14.44-3.12-32.74-7.38-41.92,8-3.31,5.54,5.34,10.58,8.63,5,4.88-8.17,15.69-6.78,23.57-5,8.28,1.81,16.51,3.91,25.06,3.65a40.64,40.64,0,0,0,23.52-8c6.28-4.69,11-11.83,17.49-16,4.22-2.73,7.88,2.09,11.32,4.31a66,66,0,0,0,10.16,5.34c7.72,3.28,16.75,6,25.16,4.06,17.66-4,21.45-23.71,23-39,.63-6.4-9.37-6.35-10,0Z"/><path class="cls-1" d="M1580.17,1634.61c4.23-4.11,12.4-10.39,16.78-3,3.58,6.07-1.23,13.52-6.32,16.95-8.6,5.8-21.63,4.5-29-2.81-9.29-9.27-6.8-24.89.08-34.76,8-11.47,21.76-17.31,34.79-20.85,6.2-1.69,3.57-11.34-2.66-9.64-15,4.08-30,11-39.52,23.74-8.7,11.56-11.75,28-5.06,41.26,5.73,11.35,18.83,17.52,31.27,16.55,13.55-1,27.42-11.09,27.56-25.77.08-7.52-4.6-15.15-12-17.45-8.83-2.75-17,2.79-23.08,8.68-4.62,4.49,2.45,11.56,7.07,7.07Z"/><path class="cls-1" d="M2035.28,1551.38c-.06,5.17-.66,14-7.57,14.25s-10-7.42-10-13.15c-.08-11.42,10.63-21.4,21.74-22,12.33-.72,21.74,10.36,24.81,21.3,4.12,14.66-1.83,30-9.05,42.59-3.2,5.6,5.44,10.64,8.63,5,8.26-14.45,14.33-31.44,10.59-48.23-2.94-13.2-12.44-25.58-25.69-29.53-13.09-3.9-27.17,2.3-35,13s-8.84,27.89,2.31,36.81c6.22,5,15.54,5.78,21.86.54,6-5,7.34-13.21,7.43-20.61.07-6.44-9.93-6.44-10,0Z"/><path class="cls-1" d="M1784.44,1663.23c-7.63-9.58-21.73-11.09-32.35-5.9-11.87,5.8-17.3,19.84-16.15,32.47,1.29,14.18,10.07,26,21.07,34.52,5.83,4.51,13.67,7.54,18.37,13.31s6,13.9,7.36,21c1.19,6.32,10.83,3.64,9.65-2.66-2.23-11.89-5.49-23.13-15.69-30.57s-20.73-12.65-27-24.18c-5.27-9.64-5.8-23.17,2.21-31.56,6.86-7.2,19.23-7.27,25.49.59,4,5,11-2.09,7.07-7.07Z"/><path class="cls-1" d="M1790.48,1785.69V1787a3.74,3.74,0,0,0,.43,1.92,3.78,3.78,0,0,0,1,1.61,5.52,5.52,0,0,0,3.54,1.47l1.33-.18a5,5,0,0,0,2.2-1.29,5.19,5.19,0,0,0,1.47-3.53v-1.35a3.88,3.88,0,0,0-.43-1.93,5.16,5.16,0,0,0-4.57-3.07l-1.33.18a4.94,4.94,0,0,0-2.21,1.28,5.19,5.19,0,0,0-1.46,3.54Z"/><path class="cls-1" d="M2174.71,1909.38a215.2,215.2,0,0,1-28.87,69.19c-3.48,5.43,5.17,10.45,8.64,5a223.22,223.22,0,0,0,29.87-71.57c1.41-6.27-8.23-9-9.64-2.66Z"/><path class="cls-1" d="M2115.46,2026.18l7.94-2.76c2.47-.86,4.37-3.47,3.5-6.15-.79-2.44-3.51-4.42-6.16-3.5l-7.94,2.77c-2.46.85-4.36,3.46-3.49,6.15.79,2.44,3.51,4.41,6.15,3.49Z"/><path class="cls-1" d="M1962.07,1680.47a208.84,208.84,0,0,1-34.53,33.1c-2.7,2-3.76,6.84,0,8.64a114.35,114.35,0,0,1,37.4,28.58c4.22,4.87,11.27-2.22,7.07-7.07a121.59,121.59,0,0,0-39.43-30.15v8.64a219,219,0,0,0,36.56-34.67c4.09-4.91-3-12-7.07-7.07Z"/><path class="cls-1" d="M1947.33,1918.61v-1.56a5.21,5.21,0,0,0-1.46-3.54,5.58,5.58,0,0,0-3.54-1.46,5.1,5.1,0,0,0-3.54,1.46,5.23,5.23,0,0,0-1.46,3.54v1.56a5.21,5.21,0,0,0,1.46,3.54,3.84,3.84,0,0,0,1.61,1,3.77,3.77,0,0,0,1.93.43,5.1,5.1,0,0,0,3.54-1.46,5.23,5.23,0,0,0,1.46-3.54Z"/><path class="cls-1" d="M1903.66,1922.89l-1.56-1.56a5.17,5.17,0,0,0-3.54-1.47,5.53,5.53,0,0,0-3.53,1.47,5,5,0,0,0-1.47,3.53,5.22,5.22,0,0,0,1.47,3.54l1.56,1.56a5.15,5.15,0,0,0,3.54,1.47,3.84,3.84,0,0,0,1.92-.43,3.8,3.8,0,0,0,1.61-1,5,5,0,0,0,1.47-3.53,5.22,5.22,0,0,0-1.47-3.54Z"/><path class="cls-1" d="M1928.57,1954.56V1953a5.21,5.21,0,0,0-1.46-3.54,5.58,5.58,0,0,0-3.54-1.46,5.06,5.06,0,0,0-3.53,1.46,5.22,5.22,0,0,0-1.47,3.54v1.56a5.15,5.15,0,0,0,1.47,3.54,3.69,3.69,0,0,0,1.61,1,3.62,3.62,0,0,0,1.92.43,5,5,0,0,0,3.54-1.46,5.19,5.19,0,0,0,1.46-3.54Z"/><path class="cls-1" d="M1954.84,1956.44c6.43,0,6.44-10,0-10s-6.45,10,0,10Z"/><path class="cls-1" d="M1884.49,1967.38h1.57a5.13,5.13,0,0,0,3.53-1.47,3.77,3.77,0,0,0,1-1.6,3.88,3.88,0,0,0,.43-1.93,5.09,5.09,0,0,0-1.47-3.54,5.23,5.23,0,0,0-3.53-1.46h-1.57a5.16,5.16,0,0,0-3.53,1.46,5.52,5.52,0,0,0-1.47,3.54,5.07,5.07,0,0,0,1.47,3.53,5.19,5.19,0,0,0,3.53,1.47Z"/><path class="cls-1" d="M1726,1984.25c-.91-8.13,3.35-16.6,11.67-18.82,9.13-2.43,17,3.08,20.59,11.23,3.7,8.42,7.33,20.41,2.89,29.14-1.82,3.57-5.78,7.61-10.2,7.12-4-.44-7.42-4.34-6.19-8.3,1.92-6.16-7.73-8.8-9.64-2.66-4.52,14.53,12.73,25.26,25,18.73,15.36-8.16,14.22-27.37,9.61-41.53-2.39-7.36-5.63-14.59-12.11-19.23a27.25,27.25,0,0,0-19.32-4.76c-13.9,1.84-23.89,15.25-22.34,29.08.7,6.33,10.71,6.4,10,0Z"/><path class="cls-1" d="M2059.57,1817.32h1.56a5.17,5.17,0,0,0,3.54-1.47,3.78,3.78,0,0,0,1-1.61,3.74,3.74,0,0,0,.43-1.92,5.06,5.06,0,0,0-1.46-3.54,5.19,5.19,0,0,0-3.54-1.46h-1.56a5.16,5.16,0,0,0-3.54,1.46,3.69,3.69,0,0,0-1,1.61,3.77,3.77,0,0,0-.43,1.93,5.06,5.06,0,0,0,1.46,3.53,5.2,5.2,0,0,0,3.54,1.47Z"/><path class="cls-1" d="M2076.35,1840.86l1.57,1.56a5.13,5.13,0,0,0,3.53,1.47,5.52,5.52,0,0,0,3.54-1.47,5,5,0,0,0,1.46-3.53,5.25,5.25,0,0,0-1.46-3.54l-1.57-1.56a5.12,5.12,0,0,0-3.53-1.46,3.68,3.68,0,0,0-1.93.43,3.75,3.75,0,0,0-1.61,1,5,5,0,0,0-1.46,3.54,5.25,5.25,0,0,0,1.46,3.53Z"/><path class="cls-1" d="M2042.78,1414.12l.86-.86c4.56-4.56-2.51-11.63-7.07-7.07l-.86.86c-4.56,4.55,2.51,11.63,7.07,7.07l.86-.86c4.56-4.56-2.51-11.63-7.07-7.07l-.86.86c-4.56,4.55,2.51,11.63,7.07,7.07Z"/><path class="cls-1" d="M2012.67,1429.65c6.44,0,6.45-10,0-10s-6.44,10,0,10Z"/><path class="cls-1" d="M1832.5,1543.86l1.56,1.56a5.17,5.17,0,0,0,3.54,1.47,3.82,3.82,0,0,0,1.92-.43,3.71,3.71,0,0,0,1.61-1,5,5,0,0,0,1.47-3.53,5.22,5.22,0,0,0-1.47-3.54l-1.56-1.56a5.14,5.14,0,0,0-3.53-1.46,5.58,5.58,0,0,0-3.54,1.46,5,5,0,0,0-1.46,3.54,5.15,5.15,0,0,0,1.46,3.53Z"/><path class="cls-1" d="M1856,1564.18l1.56,1.57a5.19,5.19,0,0,0,3.54,1.46,3.74,3.74,0,0,0,1.92-.43,3.78,3.78,0,0,0,1.61-1,5,5,0,0,0,1.47-3.54,5.22,5.22,0,0,0-1.47-3.54l-1.56-1.56a5.16,5.16,0,0,0-3.54-1.46,3.62,3.62,0,0,0-1.92.43,3.69,3.69,0,0,0-1.61,1,5,5,0,0,0-1.47,3.54,5.19,5.19,0,0,0,1.47,3.53Z"/><path class="cls-1" d="M1599.77,1758.64l1.57-3.12a5.35,5.35,0,0,0,.51-3.86,5,5,0,0,0-6.15-3.49,5,5,0,0,0-3,2.3l-1.57,3.12a5.29,5.29,0,0,0-.5,3.86,5,5,0,0,0,6.15,3.49,5,5,0,0,0,3-2.3Z"/><path class="cls-1" d="M1567.17,1782.31h-1.56a5.16,5.16,0,0,0-3.54,1.46,5.58,5.58,0,0,0-1.46,3.54,5.06,5.06,0,0,0,1.46,3.53,5.2,5.2,0,0,0,3.54,1.47h1.56a5.17,5.17,0,0,0,3.54-1.47,3.78,3.78,0,0,0,1-1.61,3.74,3.74,0,0,0,.43-1.92,5.06,5.06,0,0,0-1.46-3.54,5.19,5.19,0,0,0-3.54-1.46Z"/><path class="cls-1" d="M2230,2025.22c6.44,0,6.45-10,0-10s-6.44,10,0,10Z"/><path class="cls-1" d="M2179.93,1617.23c6.44,0,6.45-10,0-10s-6.44,10,0,10Z"/><path class="cls-1" d="M1553.36,2010.51l1.53,6.26a5,5,0,0,0,6.15,3.49,5.1,5.1,0,0,0,3.49-6.15l-1.53-6.26a5,5,0,0,0-6.15-3.49,5.1,5.1,0,0,0-3.49,6.15Z"/><path class="cls-1" d="M1027.24,583.22c6.43,0,6.45-10,0-10s-6.45,10,0,10Z"/></svg>